<?xml version="1.0" encoding="UTF-8"?>
<!DOCTYPE svg PUBLIC "-//W3C//DTD SVG 1.1//EN" "http://www.w3.org/Graphics/SVG/1.1/DTD/svg11.dtd">
<svg xmlns="http://www.w3.org/2000/svg" version="1.1" width="500px" height="500px" style="shape-rendering:geometricPrecision; text-rendering:geometricPrecision; image-rendering:optimizeQuality; fill-rule:evenodd; clip-rule:evenodd" xmlns:xlink="http://www.w3.org/1999/xlink">
<g><path style="opacity:1" fill="#8cc6d5" d="M 247.5,126.5 C 244.615,126.194 241.948,126.527 239.5,127.5C 236.482,127.335 233.482,127.502 230.5,128C 229.978,128.561 229.645,129.228 229.5,130C 231.626,133.235 234.626,135.235 238.5,136C 237.672,136.915 236.672,137.581 235.5,138C 237.549,140.907 240.216,142.74 243.5,143.5C 240.5,143.5 237.5,143.5 234.5,143.5C 234.5,142.5 234.5,141.5 234.5,140.5C 227.458,141.318 223.625,138.318 223,131.5C 220.263,132.61 217.429,132.777 214.5,132C 214.957,131.586 215.291,131.086 215.5,130.5C 214.398,129.824 213.398,129.158 212.5,128.5C 224.238,126.152 235.905,125.486 247.5,126.5 Z"/></g>
<g><path style="opacity:1" fill="#7bb9cb" d="M 239.5,127.5 C 239.082,128.222 238.416,128.722 237.5,129C 242.783,132.976 247.116,137.81 250.5,143.5C 248.167,143.5 245.833,143.5 243.5,143.5C 240.216,142.74 237.549,140.907 235.5,138C 236.672,137.581 237.672,136.915 238.5,136C 234.626,135.235 231.626,133.235 229.5,130C 229.645,129.228 229.978,128.561 230.5,128C 233.482,127.502 236.482,127.335 239.5,127.5 Z"/></g>
<g><path style="opacity:1" fill="#6faec0" d="M 239.5,127.5 C 242.518,127.335 245.518,127.502 248.5,128C 247.833,128.333 247.167,128.667 246.5,129C 251.88,132.241 254.88,137.074 255.5,143.5C 253.833,143.5 252.167,143.5 250.5,143.5C 247.116,137.81 242.783,132.976 237.5,129C 238.416,128.722 239.082,128.222 239.5,127.5 Z"/></g>
<g><path style="opacity:1" fill="#6ba6b7" d="M 239.5,127.5 C 241.948,126.527 244.615,126.194 247.5,126.5C 251.042,126.187 254.375,126.521 257.5,127.5C 252.253,129.272 252.253,131.106 257.5,133C 256.692,133.308 256.025,133.808 255.5,134.5C 256.728,137.071 258.728,138.405 261.5,138.5C 261.104,141.044 261.771,143.211 263.5,145C 261.19,145.497 258.857,145.663 256.5,145.5C 247.524,144.692 238.524,144.358 229.5,144.5C 230.919,143.549 232.585,143.216 234.5,143.5C 237.5,143.5 240.5,143.5 243.5,143.5C 245.833,143.5 248.167,143.5 250.5,143.5C 252.167,143.5 253.833,143.5 255.5,143.5C 254.88,137.074 251.88,132.241 246.5,129C 247.167,128.667 247.833,128.333 248.5,128C 245.518,127.502 242.518,127.335 239.5,127.5 Z"/></g>
<g><path style="opacity:1" fill="#98d5e3" d="M 212.5,128.5 C 213.398,129.158 214.398,129.824 215.5,130.5C 215.291,131.086 214.957,131.586 214.5,132C 217.429,132.777 220.263,132.61 223,131.5C 223.625,138.318 227.458,141.318 234.5,140.5C 234.5,141.5 234.5,142.5 234.5,143.5C 232.585,143.216 230.919,143.549 229.5,144.5C 228.833,144.5 228.167,144.5 227.5,144.5C 224.14,144.616 220.807,144.949 217.5,145.5C 213.818,145.665 210.152,145.499 206.5,145C 204.508,144.426 203.008,143.259 202,141.5C 201.282,142.451 200.449,142.617 199.5,142C 196.677,138.331 193.01,136.164 188.5,135.5C 196.219,132.566 204.219,130.233 212.5,128.5 Z"/></g>
<g><path style="opacity:1" fill="#598ea2" d="M 143.5,127.5 C 145.528,130.839 146.861,134.173 147.5,137.5C 149.824,138.662 152.158,139.829 154.5,141C 152.744,141.202 151.078,141.702 149.5,142.5C 151.51,144.171 153.843,144.838 156.5,144.5C 156.343,145.873 156.51,147.207 157,148.5C 157.667,149.833 158.333,149.833 159,148.5C 159.494,150.134 159.66,151.801 159.5,153.5C 161.564,153.687 163.564,154.187 165.5,155C 164.833,155.333 164.167,155.667 163.5,156C 165.473,156.495 167.473,156.662 169.5,156.5C 161.464,157.666 153.464,156.832 145.5,154C 144.053,151.51 143.053,151.343 142.5,153.5C 142.5,154.833 142.5,156.167 142.5,157.5C 142.5,159.5 142.5,161.5 142.5,163.5C 142.5,167.5 142.5,171.5 142.5,175.5C 142.175,183.019 142.508,190.352 143.5,197.5C 143.217,198.289 142.717,198.956 142,199.5C 141.167,175.16 141.334,150.826 142.5,126.5C 143.107,126.624 143.44,126.957 143.5,127.5 Z"/></g>
<g><path style="opacity:1" fill="#619caf" d="M 143.5,127.5 C 146.358,130.086 149.358,132.42 152.5,134.5C 153.203,136.716 154.536,138.549 156.5,140C 156.167,140.333 155.833,140.667 155.5,141C 157.608,141.36 159.608,142.027 161.5,143C 160.353,145.085 161.02,146.585 163.5,147.5C 164.246,148.736 164.579,150.07 164.5,151.5C 167.399,153.044 171.066,154.377 175.5,155.5C 173.735,156.461 171.735,156.795 169.5,156.5C 167.473,156.662 165.473,156.495 163.5,156C 164.167,155.667 164.833,155.333 165.5,155C 163.564,154.187 161.564,153.687 159.5,153.5C 159.66,151.801 159.494,150.134 159,148.5C 158.333,149.833 157.667,149.833 157,148.5C 156.51,147.207 156.343,145.873 156.5,144.5C 153.843,144.838 151.51,144.171 149.5,142.5C 151.078,141.702 152.744,141.202 154.5,141C 152.158,139.829 149.824,138.662 147.5,137.5C 146.861,134.173 145.528,130.839 143.5,127.5 Z"/></g>
<g><path style="opacity:1" fill="#43758a" d="M 282.5,133.5 C 287.895,134.704 292.895,136.704 297.5,139.5C 294.243,139.332 291.243,138.332 288.5,136.5C 287.396,137.631 287.729,138.465 289.5,139C 287.092,141.369 287.092,143.869 289.5,146.5C 290.325,147.386 291.325,147.719 292.5,147.5C 292.623,150.374 293.623,152.874 295.5,155C 295.026,156.729 294.026,157.895 292.5,158.5C 289.515,157.674 286.849,156.341 284.5,154.5C 284.938,154.565 285.272,154.399 285.5,154C 282.833,153.333 282.833,152.667 285.5,152C 282.383,145.901 279.717,139.901 277.5,134C 279.227,134.526 280.894,134.359 282.5,133.5 Z"/></g>
<g><path style="opacity:1" fill="#4e869c" d="M 273.5,130.5 C 276.785,130.928 279.785,131.928 282.5,133.5C 280.894,134.359 279.227,134.526 277.5,134C 279.717,139.901 282.383,145.901 285.5,152C 282.833,152.667 282.833,153.333 285.5,154C 285.272,154.399 284.938,154.565 284.5,154.5C 283.167,154.167 281.833,153.833 280.5,153.5C 277.833,152.167 275.167,150.833 272.5,149.5C 273.473,149.013 274.473,148.513 275.5,148C 272.259,146.758 269.259,145.091 266.5,143C 268.025,141.991 269.692,141.491 271.5,141.5C 271.649,140.448 271.483,139.448 271,138.5C 268.715,137.181 266.548,135.681 264.5,134C 267.327,132.336 270.327,131.17 273.5,130.5 Z"/></g>
<g><path style="opacity:1" fill="#6fabbd" d="M 152.5,134.5 C 156.11,135.703 159.777,136.703 163.5,137.5C 167.298,138.483 171.298,138.817 175.5,138.5C 175.119,139.931 174.119,140.764 172.5,141C 173.667,142.833 174.833,144.667 176,146.5C 176.333,146.167 176.667,145.833 177,145.5C 178.171,147.842 179.338,150.176 180.5,152.5C 182.071,153.309 183.738,153.643 185.5,153.5C 182.456,155.011 179.122,155.678 175.5,155.5C 171.066,154.377 167.399,153.044 164.5,151.5C 164.579,150.07 164.246,148.736 163.5,147.5C 161.02,146.585 160.353,145.085 161.5,143C 159.608,142.027 157.608,141.36 155.5,141C 155.833,140.667 156.167,140.333 156.5,140C 154.536,138.549 153.203,136.716 152.5,134.5 Z"/></g>
<g><path style="opacity:1" fill="#5e99ac" d="M 257.5,127.5 C 263.095,127.754 268.428,128.754 273.5,130.5C 270.327,131.17 267.327,132.336 264.5,134C 266.548,135.681 268.715,137.181 271,138.5C 271.483,139.448 271.649,140.448 271.5,141.5C 269.692,141.491 268.025,141.991 266.5,143C 269.259,145.091 272.259,146.758 275.5,148C 274.473,148.513 273.473,149.013 272.5,149.5C 268.864,148.674 265.197,148.008 261.5,147.5C 259.833,146.833 258.167,146.167 256.5,145.5C 258.857,145.663 261.19,145.497 263.5,145C 261.771,143.211 261.104,141.044 261.5,138.5C 258.728,138.405 256.728,137.071 255.5,134.5C 256.025,133.808 256.692,133.308 257.5,133C 252.253,131.106 252.253,129.272 257.5,127.5 Z"/></g>
<g><path style="opacity:1" fill="#80bdce" d="M 175.5,138.5 C 180.294,138.457 184.627,139.623 188.5,142C 187.5,142.333 186.5,142.667 185.5,143C 187.917,144.144 188.584,145.81 187.5,148C 188.865,149.682 190.365,149.849 192,148.5C 192.513,149.527 193.013,150.527 193.5,151.5C 192.833,151.5 192.5,151.833 192.5,152.5C 190.139,152.674 187.806,153.007 185.5,153.5C 183.738,153.643 182.071,153.309 180.5,152.5C 179.338,150.176 178.171,147.842 177,145.5C 176.667,145.833 176.333,146.167 176,146.5C 174.833,144.667 173.667,142.833 172.5,141C 174.119,140.764 175.119,139.931 175.5,138.5 Z"/></g>
<g><path style="opacity:1" fill="#94d0de" d="M 188.5,135.5 C 193.01,136.164 196.677,138.331 199.5,142C 200.449,142.617 201.282,142.451 202,141.5C 203.008,143.259 204.508,144.426 206.5,145C 210.152,145.499 213.818,145.665 217.5,145.5C 209.577,147.357 201.577,149.357 193.5,151.5C 193.013,150.527 192.513,149.527 192,148.5C 190.365,149.849 188.865,149.682 187.5,148C 188.584,145.81 187.917,144.144 185.5,143C 186.5,142.667 187.5,142.333 188.5,142C 184.627,139.623 180.294,138.457 175.5,138.5C 171.298,138.817 167.298,138.483 163.5,137.5C 171.936,137.847 180.269,137.181 188.5,135.5 Z"/></g>
<g><path style="opacity:1" fill="#2b5164" d="M 227.5,144.5 C 228.167,144.5 228.833,144.5 229.5,144.5C 238.524,144.358 247.524,144.692 256.5,145.5C 258.167,146.167 259.833,146.833 261.5,147.5C 257.173,148.224 252.506,149.057 247.5,150C 246.244,150.417 245.577,151.25 245.5,152.5C 239.949,152.527 234.616,153.194 229.5,154.5C 228.833,154.5 228.5,154.833 228.5,155.5C 224.215,156.295 219.881,156.628 215.5,156.5C 213.883,155.962 212.216,155.629 210.5,155.5C 214.924,153.868 219.591,152.702 224.5,152C 222.059,151.964 220.059,151.131 218.5,149.5C 221.277,149.469 223.944,148.969 226.5,148C 225.167,147.667 223.833,147.333 222.5,147C 224.5,146.667 226.5,146.333 228.5,146C 227.944,145.617 227.611,145.117 227.5,144.5 Z"/></g>
<g><path style="opacity:1" fill="#23485b" d="M 261.5,147.5 C 265.197,148.008 268.864,148.674 272.5,149.5C 275.167,150.833 277.833,152.167 280.5,153.5C 279.849,154.091 279.182,154.757 278.5,155.5C 277.304,155.154 277.304,154.654 278.5,154C 276.5,153.5 274.5,153 272.5,152.5C 271.584,152.543 270.917,152.876 270.5,153.5C 268.4,153.477 266.567,154.144 265,155.5C 263.046,153.566 260.88,153.233 258.5,154.5C 254.231,153.462 249.898,152.795 245.5,152.5C 245.577,151.25 246.244,150.417 247.5,150C 252.506,149.057 257.173,148.224 261.5,147.5 Z"/></g>
<g><path style="opacity:1" fill="#295063" d="M 311.5,148.5 C 313.23,149.026 314.564,150.026 315.5,151.5C 313.897,151.312 312.563,151.812 311.5,153C 314.167,153.667 314.167,154.333 311.5,155C 314.167,156.667 314.167,158.333 311.5,160C 313.669,161.328 314.002,162.994 312.5,165C 313.125,168.472 314.125,171.805 315.5,175C 315.272,175.399 314.938,175.565 314.5,175.5C 310.227,172.566 306.227,169.233 302.5,165.5C 302.463,162.62 302.796,159.62 303.5,156.5C 303.351,154.68 302.684,153.18 301.5,152C 302.406,149.553 303.239,147.053 304,144.5C 305.846,147.007 308.346,148.341 311.5,148.5 Z"/></g>
<g><path style="opacity:0.29" fill="#688691" d="M 228.5,155.5 C 228.5,154.833 228.833,154.5 229.5,154.5C 238.866,154.372 248.2,154.872 257.5,156C 261.052,156.878 264.386,158.044 267.5,159.5C 254.68,156.557 241.68,155.224 228.5,155.5 Z"/></g>
<g><path style="opacity:1" fill="#193a4a" d="M 245.5,152.5 C 249.898,152.795 254.231,153.462 258.5,154.5C 260.88,153.233 263.046,153.566 265,155.5C 266.567,154.144 268.4,153.477 270.5,153.5C 271.82,154.942 273.486,155.608 275.5,155.5C 275.328,157.492 275.995,159.158 277.5,160.5C 277.376,161.107 277.043,161.44 276.5,161.5C 273.539,160.677 270.539,160.01 267.5,159.5C 264.386,158.044 261.052,156.878 257.5,156C 248.2,154.872 238.866,154.372 229.5,154.5C 234.616,153.194 239.949,152.527 245.5,152.5 Z"/></g>
<g><path style="opacity:0.999" fill="#325a6e" d="M 142.5,153.5 C 144.686,156.611 147.686,158.778 151.5,160C 155.974,160.587 160.307,160.421 164.5,159.5C 168.85,159.367 169.85,160.7 167.5,163.5C 166.329,164.345 164.995,165.011 163.5,165.5C 161.81,164.897 160.31,163.897 159,162.5C 157.327,164.917 155.494,164.917 153.5,162.5C 152.614,163.325 152.281,164.325 152.5,165.5C 147.151,165.179 143.818,162.513 142.5,157.5C 142.5,156.167 142.5,154.833 142.5,153.5 Z"/></g>
<g><path style="opacity:1" fill="#326276" d="M 169.5,156.5 C 171.735,156.795 173.735,156.461 175.5,155.5C 179.122,155.678 182.456,155.011 185.5,153.5C 187.806,153.007 190.139,152.674 192.5,152.5C 189.784,154.613 186.95,156.613 184,158.5C 181.843,155.922 180.677,155.922 180.5,158.5C 177.461,157.664 174.461,157.998 171.5,159.5C 169.028,158.234 166.694,158.234 164.5,159.5C 160.307,160.421 155.974,160.587 151.5,160C 147.686,158.778 144.686,156.611 142.5,153.5C 143.053,151.343 144.053,151.51 145.5,154C 153.464,156.832 161.464,157.666 169.5,156.5 Z"/></g>
<g><path style="opacity:1" fill="#36596a" d="M 210.5,155.5 C 212.216,155.629 213.883,155.962 215.5,156.5C 201.103,159.857 187.436,165.19 174.5,172.5C 174.5,171.5 174.5,170.5 174.5,169.5C 180.556,166.76 186.556,163.927 192.5,161C 190.145,159.749 187.812,159.249 185.5,159.5C 190.845,158.393 194.678,156.726 197,154.5C 198.785,155.24 200.618,155.907 202.5,156.5C 203.696,156.154 203.696,155.654 202.5,155C 203.872,154.598 205.205,154.098 206.5,153.5C 207.524,154.853 208.857,155.52 210.5,155.5 Z"/></g>
<g><path style="opacity:1" fill="#366277" d="M 297.5,139.5 C 302.515,142.004 307.181,145.004 311.5,148.5C 308.346,148.341 305.846,147.007 304,144.5C 303.239,147.053 302.406,149.553 301.5,152C 302.684,153.18 303.351,154.68 303.5,156.5C 302.796,159.62 302.463,162.62 302.5,165.5C 302.167,165.5 301.833,165.5 301.5,165.5C 298.786,162.785 295.786,160.451 292.5,158.5C 294.026,157.895 295.026,156.729 295.5,155C 293.623,152.874 292.623,150.374 292.5,147.5C 291.325,147.719 290.325,147.386 289.5,146.5C 287.092,143.869 287.092,141.369 289.5,139C 287.729,138.465 287.396,137.631 288.5,136.5C 291.243,138.332 294.243,139.332 297.5,139.5 Z"/></g>
<g><path style="opacity:0.122" fill="#84a1a5" d="M 267.5,159.5 C 270.539,160.01 273.539,160.677 276.5,161.5C 276.833,162.167 277.167,162.833 277.5,163.5C 273.851,162.733 270.518,161.4 267.5,159.5 Z"/></g>
<g><path style="opacity:1" fill="#1e4154" d="M 270.5,153.5 C 270.917,152.876 271.584,152.543 272.5,152.5C 274.5,153 276.5,153.5 278.5,154C 277.304,154.654 277.304,155.154 278.5,155.5C 279.182,154.757 279.849,154.091 280.5,153.5C 281.833,153.833 283.167,154.167 284.5,154.5C 286.849,156.341 289.515,157.674 292.5,158.5C 295.786,160.451 298.786,162.785 301.5,165.5C 299.766,166.562 298.099,166.562 296.5,165.5C 293.834,164.339 290.667,163.339 287,162.5C 284.626,162.981 282.126,163.148 279.5,163C 280.756,163.417 281.423,164.25 281.5,165.5C 279.847,165.34 278.514,164.674 277.5,163.5C 277.167,162.833 276.833,162.167 276.5,161.5C 277.043,161.44 277.376,161.107 277.5,160.5C 275.995,159.158 275.328,157.492 275.5,155.5C 273.486,155.608 271.82,154.942 270.5,153.5 Z"/></g>
<g><path style="opacity:1" fill="#2f5b6e" d="M 227.5,144.5 C 227.611,145.117 227.944,145.617 228.5,146C 226.5,146.333 224.5,146.667 222.5,147C 223.833,147.333 225.167,147.667 226.5,148C 223.944,148.969 221.277,149.469 218.5,149.5C 220.059,151.131 222.059,151.964 224.5,152C 219.591,152.702 214.924,153.868 210.5,155.5C 208.857,155.52 207.524,154.853 206.5,153.5C 205.205,154.098 203.872,154.598 202.5,155C 203.696,155.654 203.696,156.154 202.5,156.5C 200.618,155.907 198.785,155.24 197,154.5C 194.678,156.726 190.845,158.393 185.5,159.5C 183.176,159.995 181.009,159.995 179,159.5C 177.265,160.682 176.265,162.349 176,164.5C 173.281,163.556 170.448,163.223 167.5,163.5C 169.85,160.7 168.85,159.367 164.5,159.5C 166.694,158.234 169.028,158.234 171.5,159.5C 174.461,157.998 177.461,157.664 180.5,158.5C 180.677,155.922 181.843,155.922 184,158.5C 186.95,156.613 189.784,154.613 192.5,152.5C 192.5,151.833 192.833,151.5 193.5,151.5C 201.577,149.357 209.577,147.357 217.5,145.5C 220.807,144.949 224.14,144.616 227.5,144.5 Z"/></g>
<g><path style="opacity:1" fill="#2d5367" d="M 142.5,157.5 C 143.818,162.513 147.151,165.179 152.5,165.5C 152.281,164.325 152.614,163.325 153.5,162.5C 155.494,164.917 157.327,164.917 159,162.5C 160.31,163.897 161.81,164.897 163.5,165.5C 162.194,166.467 161.527,167.801 161.5,169.5C 157.108,170.956 152.608,172.289 148,173.5C 147.167,172.5 146.333,171.5 145.5,170.5C 144.808,171.025 144.308,171.692 144,172.5C 143.819,169.305 143.319,166.305 142.5,163.5C 142.5,161.5 142.5,159.5 142.5,157.5 Z"/></g>
<g><path style="opacity:1" fill="#2e5367" d="M 185.5,159.5 C 187.812,159.249 190.145,159.749 192.5,161C 186.556,163.927 180.556,166.76 174.5,169.5C 174.5,170.5 174.5,171.5 174.5,172.5C 171.709,174.735 168.709,176.735 165.5,178.5C 165.527,176.801 166.194,175.467 167.5,174.5C 173.124,173.495 173.624,171.495 169,168.5C 168.009,169.939 166.676,170.939 165,171.5C 164.184,170.177 163.017,169.511 161.5,169.5C 161.527,167.801 162.194,166.467 163.5,165.5C 164.995,165.011 166.329,164.345 167.5,163.5C 170.448,163.223 173.281,163.556 176,164.5C 176.265,162.349 177.265,160.682 179,159.5C 181.009,159.995 183.176,159.995 185.5,159.5 Z"/></g>
<g><path style="opacity:1" fill="#1c3b4c" d="M 329.5,168.5 C 327.63,169.941 325.963,171.607 324.5,173.5C 325.267,175.357 326.267,177.024 327.5,178.5C 326.761,178.369 326.094,178.536 325.5,179C 326.308,180.706 327.641,181.539 329.5,181.5C 329.672,183.492 329.005,185.158 327.5,186.5C 327.977,187.478 328.643,188.311 329.5,189C 328.177,189.816 327.511,190.983 327.5,192.5C 326.298,191.595 324.964,191.595 323.5,192.5C 323.306,190.088 321.973,189.088 319.5,189.5C 319.414,188.504 319.748,187.671 320.5,187C 317.96,185.96 316.293,184.126 315.5,181.5C 314.914,181.709 314.414,182.043 314,182.5C 312.835,180.272 311.335,178.939 309.5,178.5C 309.615,173.283 307.281,171.283 302.5,172.5C 301.289,171.726 301.289,170.893 302.5,170C 301.069,169.535 299.903,168.701 299,167.5C 298.667,168.167 298.333,168.833 298,169.5C 297.209,168.255 296.709,166.922 296.5,165.5C 298.099,166.562 299.766,166.562 301.5,165.5C 301.833,165.5 302.167,165.5 302.5,165.5C 306.227,169.233 310.227,172.566 314.5,175.5C 316.729,179.403 319.729,182.736 323.5,185.5C 323.833,185.167 324.167,184.833 324.5,184.5C 323.024,183.12 322.024,181.453 321.5,179.5C 322.624,175.37 323.957,171.37 325.5,167.5C 324.312,167.693 322.978,167.193 321.5,166C 322.167,165.667 322.833,165.333 323.5,165C 321.063,163.721 320.563,162.221 322,160.5C 324.094,162.671 326.428,164.671 329,166.5C 329.464,167.094 329.631,167.761 329.5,168.5 Z"/></g>
<g><path style="opacity:1" fill="#244456" d="M 315.5,151.5 C 321.797,156.129 327.463,161.462 332.5,167.5C 331.391,167.557 330.391,167.89 329.5,168.5C 329.631,167.761 329.464,167.094 329,166.5C 326.428,164.671 324.094,162.671 322,160.5C 320.563,162.221 321.063,163.721 323.5,165C 322.833,165.333 322.167,165.667 321.5,166C 322.978,167.193 324.312,167.693 325.5,167.5C 323.957,171.37 322.624,175.37 321.5,179.5C 322.024,181.453 323.024,183.12 324.5,184.5C 324.167,184.833 323.833,185.167 323.5,185.5C 319.729,182.736 316.729,179.403 314.5,175.5C 314.938,175.565 315.272,175.399 315.5,175C 314.125,171.805 313.125,168.472 312.5,165C 314.002,162.994 313.669,161.328 311.5,160C 314.167,158.333 314.167,156.667 311.5,155C 314.167,154.333 314.167,153.667 311.5,153C 312.563,151.812 313.897,151.312 315.5,151.5 Z"/></g>
<g><path style="opacity:1" fill="#284c5f" d="M 142.5,163.5 C 143.319,166.305 143.819,169.305 144,172.5C 144.308,171.692 144.808,171.025 145.5,170.5C 146.333,171.5 147.167,172.5 148,173.5C 152.608,172.289 157.108,170.956 161.5,169.5C 163.017,169.511 164.184,170.177 165,171.5C 166.676,170.939 168.009,169.939 169,168.5C 173.624,171.495 173.124,173.495 167.5,174.5C 165.923,171.983 164.09,171.983 162,174.5C 161.586,174.043 161.086,173.709 160.5,173.5C 158.193,174.991 155.693,175.991 153,176.5C 151.251,175.701 149.918,176.368 149,178.5C 146.568,177.931 144.401,176.931 142.5,175.5C 142.5,171.5 142.5,167.5 142.5,163.5 Z"/></g>
<g><path style="opacity:1" fill="#0f1c27" d="M 244.5,170.5 C 244.047,171.458 243.381,172.292 242.5,173C 242.833,173.167 243.167,173.333 243.5,173.5C 246.573,173.049 249.573,172.716 252.5,172.5C 253.5,172.833 254.5,173.167 255.5,173.5C 256.55,174.429 256.55,175.095 255.5,175.5C 248.839,176.788 242.172,176.788 235.5,175.5C 230.326,177.285 224.993,178.285 219.5,178.5C 217.375,177.311 215.375,177.645 213.5,179.5C 211.464,177.016 208.798,176.016 205.5,176.5C 217.87,171.385 230.87,169.385 244.5,170.5 Z"/></g>
<g><path style="opacity:1" fill="#1f3947" d="M 296.5,165.5 C 296.709,166.922 297.209,168.255 298,169.5C 298.333,168.833 298.667,168.167 299,167.5C 299.903,168.701 301.069,169.535 302.5,170C 301.289,170.893 301.289,171.726 302.5,172.5C 307.281,171.283 309.615,173.283 309.5,178.5C 309.631,179.239 309.464,179.906 309,180.5C 307.559,179.74 306.059,179.074 304.5,178.5C 303.702,178.957 303.369,179.624 303.5,180.5C 296.692,174.685 289.358,169.685 281.5,165.5C 281.423,164.25 280.756,163.417 279.5,163C 282.126,163.148 284.626,162.981 287,162.5C 290.667,163.339 293.834,164.339 296.5,165.5 Z"/></g>
<g><path style="opacity:1" fill="#193445" d="M 335.5,186.5 C 335.433,188.401 335.767,190.234 336.5,192C 335.711,193.626 334.711,195.126 333.5,196.5C 335.264,198.13 336.264,200.13 336.5,202.5C 335.766,203.708 335.433,205.041 335.5,206.5C 333.125,201.686 330.458,197.02 327.5,192.5C 327.511,190.983 328.177,189.816 329.5,189C 328.643,188.311 327.977,187.478 327.5,186.5C 329.005,185.158 329.672,183.492 329.5,181.5C 327.641,181.539 326.308,180.706 325.5,179C 326.094,178.536 326.761,178.369 327.5,178.5C 328.222,178.082 328.722,177.416 329,176.5C 330.804,178.642 332.637,180.808 334.5,183C 333.376,183.249 332.376,183.749 331.5,184.5C 332.274,185.711 333.107,185.711 334,184.5C 334.278,185.416 334.778,186.082 335.5,186.5 Z"/></g>
<g><path style="opacity:1" fill="#1c3643" d="M 332.5,167.5 C 337.575,173.313 341.908,179.646 345.5,186.5C 342.024,185.554 338.691,185.554 335.5,186.5C 334.778,186.082 334.278,185.416 334,184.5C 333.107,185.711 332.274,185.711 331.5,184.5C 332.376,183.749 333.376,183.249 334.5,183C 332.637,180.808 330.804,178.642 329,176.5C 328.722,177.416 328.222,178.082 327.5,178.5C 326.267,177.024 325.267,175.357 324.5,173.5C 325.963,171.607 327.63,169.941 329.5,168.5C 330.391,167.89 331.391,167.557 332.5,167.5 Z"/></g>
<g><path style="opacity:1" fill="#294859" d="M 167.5,174.5 C 166.194,175.467 165.527,176.801 165.5,178.5C 157.577,184.086 150.243,190.419 143.5,197.5C 142.508,190.352 142.175,183.019 142.5,175.5C 144.401,176.931 146.568,177.931 149,178.5C 149.918,176.368 151.251,175.701 153,176.5C 155.693,175.991 158.193,174.991 160.5,173.5C 161.086,173.709 161.586,174.043 162,174.5C 164.09,171.983 165.923,171.983 167.5,174.5 Z"/></g>
<g><path style="opacity:1" fill="#0d1b27" d="M 205.5,176.5 C 208.798,176.016 211.464,177.016 213.5,179.5C 215.375,177.645 217.375,177.311 219.5,178.5C 217.087,180.887 214.42,183.054 211.5,185C 207.5,185.333 203.5,185.667 199.5,186C 195.762,190.177 192.095,190.51 188.5,187C 189.267,185.53 189.933,184.03 190.5,182.5C 194.894,179.141 199.894,177.141 205.5,176.5 Z"/></g>
<g><path style="opacity:1" fill="#1c2730" d="M 244.5,170.5 C 262.492,171.557 278.159,177.89 291.5,189.5C 289.116,189.557 286.782,189.223 284.5,188.5C 279.289,184.978 273.622,182.311 267.5,180.5C 264.929,176.53 261.429,175.53 257,177.5C 256.283,176.956 255.783,176.289 255.5,175.5C 256.55,175.095 256.55,174.429 255.5,173.5C 254.5,173.167 253.5,172.833 252.5,172.5C 249.573,172.716 246.573,173.049 243.5,173.5C 243.167,173.333 242.833,173.167 242.5,173C 243.381,172.292 244.047,171.458 244.5,170.5 Z"/></g>
<g><path style="opacity:1" fill="#203747" d="M 309.5,178.5 C 311.335,178.939 312.835,180.272 314,182.5C 314.414,182.043 314.914,181.709 315.5,181.5C 316.293,184.126 317.96,185.96 320.5,187C 319.748,187.671 319.414,188.504 319.5,189.5C 319.389,190.117 319.056,190.617 318.5,191C 320.519,194.206 321.519,197.706 321.5,201.5C 316.278,193.936 310.278,186.936 303.5,180.5C 303.369,179.624 303.702,178.957 304.5,178.5C 306.059,179.074 307.559,179.74 309,180.5C 309.464,179.906 309.631,179.239 309.5,178.5 Z"/></g>
<g><path style="opacity:1" fill="#0f2230" d="M 255.5,175.5 C 255.783,176.289 256.283,176.956 257,177.5C 261.429,175.53 264.929,176.53 267.5,180.5C 273.622,182.311 279.289,184.978 284.5,188.5C 286.782,189.223 289.116,189.557 291.5,189.5C 291.833,190.5 292.5,191.167 293.5,191.5C 291.804,192.525 290.804,194.192 290.5,196.5C 290.167,196.5 289.833,196.5 289.5,196.5C 282.651,189.243 274.318,184.91 264.5,183.5C 264.389,182.883 264.056,182.383 263.5,182C 252.16,178.717 240.827,178.717 229.5,182C 228.663,183.011 228.33,184.178 228.5,185.5C 230.833,185.5 233.167,185.5 235.5,185.5C 237.099,185.232 238.432,185.566 239.5,186.5C 231.493,186.334 223.493,186.5 215.5,187C 210.223,188.332 209.223,191.166 212.5,195.5C 211.833,195.5 211.167,195.5 210.5,195.5C 209.24,193.633 207.573,192.3 205.5,191.5C 202.1,191.533 198.6,191.533 195,191.5C 194.833,192 194.667,192.5 194.5,193C 197.497,200.485 200.331,207.985 203,215.5C 203.775,224.215 203.608,232.881 202.5,241.5C 202.768,243.099 202.434,244.432 201.5,245.5C 201.5,245.167 201.5,244.833 201.5,244.5C 201.802,241.941 201.468,239.607 200.5,237.5C 200.382,230.832 200.382,224.332 200.5,218C 199.205,217.298 197.872,216.631 196.5,216C 196.957,215.586 197.291,215.086 197.5,214.5C 195.82,213.231 194.653,211.564 194,209.5C 193.536,210.094 193.369,210.761 193.5,211.5C 192.613,206.486 191.28,201.486 189.5,196.5C 188.462,193.223 187.129,190.057 185.5,187C 186.252,186.329 186.586,185.496 186.5,184.5C 187.514,183.326 188.847,182.66 190.5,182.5C 189.933,184.03 189.267,185.53 188.5,187C 192.095,190.51 195.762,190.177 199.5,186C 203.5,185.667 207.5,185.333 211.5,185C 214.42,183.054 217.087,180.887 219.5,178.5C 224.993,178.285 230.326,177.285 235.5,175.5C 242.172,176.788 248.839,176.788 255.5,175.5 Z"/></g>
<g><path style="opacity:1" fill="#1b3749" d="M 264.5,183.5 C 274.318,184.91 282.651,189.243 289.5,196.5C 285.585,195.148 281.585,193.981 277.5,193C 278.833,192.333 278.833,191.667 277.5,191C 272.338,188.871 267.005,188.204 261.5,189C 260.263,189.232 259.263,189.732 258.5,190.5C 253.487,188.998 248.487,187.664 243.5,186.5C 242.167,186.5 240.833,186.5 239.5,186.5C 238.432,185.566 237.099,185.232 235.5,185.5C 236.772,184.566 238.272,183.899 240,183.5C 248.105,183.748 256.272,183.748 264.5,183.5 Z"/></g>
<g><path style="opacity:1" fill="#132c3d" d="M 264.5,183.5 C 256.272,183.748 248.105,183.748 240,183.5C 238.272,183.899 236.772,184.566 235.5,185.5C 233.167,185.5 230.833,185.5 228.5,185.5C 228.33,184.178 228.663,183.011 229.5,182C 240.827,178.717 252.16,178.717 263.5,182C 264.056,182.383 264.389,182.883 264.5,183.5 Z"/></g>
<g><path style="opacity:1" fill="#19303e" d="M 345.5,186.5 C 348.949,191.735 351.616,197.402 353.5,203.5C 350.589,202.59 348.589,200.59 347.5,197.5C 345.922,196.928 344.422,196.594 343,196.5C 341.703,199.197 341.203,201.864 341.5,204.5C 340.504,204.414 339.671,204.748 339,205.5C 338.148,204.429 337.315,203.429 336.5,202.5C 336.264,200.13 335.264,198.13 333.5,196.5C 334.711,195.126 335.711,193.626 336.5,192C 335.767,190.234 335.433,188.401 335.5,186.5C 338.691,185.554 342.024,185.554 345.5,186.5 Z"/></g>
<g><path style="opacity:0.997" fill="#182a37" d="M 243.5,186.5 C 248.487,187.664 253.487,188.998 258.5,190.5C 260.5,191.5 262.5,192.5 264.5,193.5C 264.631,194.239 264.464,194.906 264,195.5C 262.672,193.331 261.006,192.998 259,194.5C 257.441,193.971 255.941,193.304 254.5,192.5C 252.729,193.035 252.396,193.869 253.5,195C 250.518,195.498 247.518,195.665 244.5,195.5C 235.833,195.5 227.167,195.5 218.5,195.5C 220.019,194.59 221.685,193.757 223.5,193C 230.778,192.214 237.778,190.547 244.5,188C 243.944,187.617 243.611,187.117 243.5,186.5 Z"/></g>
<g><path style="opacity:0.008" fill="#ced2d6" d="M 291.5,189.5 C 293.027,189.427 294.027,190.094 294.5,191.5C 294.167,191.5 293.833,191.5 293.5,191.5C 292.5,191.167 291.833,190.5 291.5,189.5 Z"/></g>
<g><path style="opacity:1" fill="#375363" d="M 186.5,184.5 C 186.586,185.496 186.252,186.329 185.5,187C 187.129,190.057 188.462,193.223 189.5,196.5C 185.833,196.5 182.167,196.5 178.5,196.5C 178.5,197.833 178.5,199.167 178.5,200.5C 178.5,201.833 178.5,203.167 178.5,204.5C 177.662,204.158 177.328,203.492 177.5,202.5C 177.663,200.143 177.497,197.81 177,195.5C 176.764,193.881 175.931,192.881 174.5,192.5C 178.148,189.34 182.148,186.673 186.5,184.5 Z"/></g>
<g><path style="opacity:1" fill="#0c1d2b" d="M 239.5,186.5 C 240.833,186.5 242.167,186.5 243.5,186.5C 243.611,187.117 243.944,187.617 244.5,188C 237.778,190.547 230.778,192.214 223.5,193C 221.685,193.757 220.019,194.59 218.5,195.5C 216.5,195.5 214.5,195.5 212.5,195.5C 209.223,191.166 210.223,188.332 215.5,187C 223.493,186.5 231.493,186.334 239.5,186.5 Z"/></g>
<g><path style="opacity:0.569" fill="#a8b1bd" d="M 294.5,191.5 C 297.215,193.548 299.548,195.882 301.5,198.5C 298.145,197.145 295.811,194.811 294.5,191.5 Z"/></g>
<g><path style="opacity:1" fill="#142d3b" d="M 205.5,191.5 C 204.761,191.369 204.094,191.536 203.5,192C 204.67,195.303 206.003,198.47 207.5,201.5C 206.618,214.124 206.618,226.79 207.5,239.5C 205.621,239.393 205.288,239.893 206.5,241C 205.874,241.75 205.374,242.584 205,243.5C 204.583,242.244 203.75,241.577 202.5,241.5C 203.608,232.881 203.775,224.215 203,215.5C 200.331,207.985 197.497,200.485 194.5,193C 194.667,192.5 194.833,192 195,191.5C 198.6,191.533 202.1,191.533 205.5,191.5 Z"/></g>
<g><path style="opacity:1" fill="#142d3c" d="M 264.5,193.5 C 268.517,195.861 272.517,198.194 276.5,200.5C 277.5,201.833 278.5,203.167 279.5,204.5C 279.565,204.938 279.399,205.272 279,205.5C 277.324,204.939 275.991,203.939 275,202.5C 274.586,202.957 274.086,203.291 273.5,203.5C 271.136,202.488 269.802,201.155 269.5,199.5C 265.971,201.901 263.471,200.901 262,196.5C 261.623,197.942 260.79,198.942 259.5,199.5C 254.394,198.152 249.394,196.819 244.5,195.5C 247.518,195.665 250.518,195.498 253.5,195C 252.396,193.869 252.729,193.035 254.5,192.5C 255.941,193.304 257.441,193.971 259,194.5C 261.006,192.998 262.672,193.331 264,195.5C 264.464,194.906 264.631,194.239 264.5,193.5 Z"/></g>
<g><path style="opacity:1" fill="#244a5d" d="M 289.5,196.5 C 289.833,196.5 290.167,196.5 290.5,196.5C 294.204,199.567 297.204,203.234 299.5,207.5C 298.167,207.5 296.833,207.5 295.5,207.5C 295.703,205.61 295.037,204.11 293.5,203C 291.273,202.879 289.44,202.046 288,200.5C 285.587,203.314 283.421,203.148 281.5,200C 281.833,199.667 282.167,199.333 282.5,199C 280.481,198.55 278.648,197.717 277,196.5C 275.176,197.749 275.343,198.915 277.5,200C 277.272,200.399 276.938,200.565 276.5,200.5C 272.517,198.194 268.517,195.861 264.5,193.5C 262.5,192.5 260.5,191.5 258.5,190.5C 259.263,189.732 260.263,189.232 261.5,189C 267.005,188.204 272.338,188.871 277.5,191C 278.833,191.667 278.833,192.333 277.5,193C 281.585,193.981 285.585,195.148 289.5,196.5 Z"/></g>
<g><path style="opacity:1" fill="#121d26" d="M 158.5,205.5 C 161.599,201.066 165.599,197.733 170.5,195.5C 171.496,195.586 172.329,195.252 173,194.5C 174.825,196.48 175.659,198.813 175.5,201.5C 172.303,201.973 169.137,202.639 166,203.5C 165.228,203.355 164.561,203.022 164,202.5C 163.031,205.056 162.531,207.723 162.5,210.5C 161.397,212.104 159.897,213.104 158,213.5C 157.853,212.397 157.02,211.23 155.5,210C 157.863,209.411 158.863,207.911 158.5,205.5 Z"/></g>
<g><path style="opacity:1" fill="#1e3a4c" d="M 327.5,192.5 C 330.458,197.02 333.125,201.686 335.5,206.5C 337.285,211.366 338.951,216.366 340.5,221.5C 341.556,224.669 341.556,227.669 340.5,230.5C 338.774,225.716 337.607,220.716 337,215.5C 336.667,215.833 336.333,216.167 336,216.5C 335.072,214.693 333.906,213.026 332.5,211.5C 332.833,210.833 333.167,210.167 333.5,209.5C 330.959,205.587 328.292,201.753 325.5,198C 326.651,195.318 325.651,193.651 322.5,193C 322.728,192.601 323.062,192.435 323.5,192.5C 324.964,191.595 326.298,191.595 327.5,192.5 Z"/></g>
<g><path style="opacity:1" fill="#1a3444" d="M 319.5,189.5 C 321.973,189.088 323.306,190.088 323.5,192.5C 323.062,192.435 322.728,192.601 322.5,193C 325.651,193.651 326.651,195.318 325.5,198C 328.292,201.753 330.959,205.587 333.5,209.5C 333.167,210.167 332.833,210.833 332.5,211.5C 333.906,213.026 335.072,214.693 336,216.5C 336.333,216.167 336.667,215.833 337,215.5C 337.607,220.716 338.774,225.716 340.5,230.5C 338.696,229.04 337.196,226.706 336,223.5C 336.5,219.18 334.667,216.846 330.5,216.5C 330.5,218.167 330.5,219.833 330.5,221.5C 327.538,214.902 324.538,208.235 321.5,201.5C 321.519,197.706 320.519,194.206 318.5,191C 319.056,190.617 319.389,190.117 319.5,189.5 Z"/></g>
<g><path style="opacity:1" fill="#2b566a" d="M 299.5,207.5 C 300.167,207.833 300.833,208.167 301.5,208.5C 302.167,210.5 302.833,212.5 303.5,214.5C 302.527,215.791 301.527,215.791 300.5,214.5C 300.286,210.413 298.452,209.079 295,210.5C 291.201,209.701 288.201,207.701 286,204.5C 284.397,204.871 282.897,205.205 281.5,205.5C 280.833,205.167 280.167,204.833 279.5,204.5C 278.5,203.167 277.5,201.833 276.5,200.5C 276.938,200.565 277.272,200.399 277.5,200C 275.343,198.915 275.176,197.749 277,196.5C 278.648,197.717 280.481,198.55 282.5,199C 282.167,199.333 281.833,199.667 281.5,200C 283.421,203.148 285.587,203.314 288,200.5C 289.44,202.046 291.273,202.879 293.5,203C 295.037,204.11 295.703,205.61 295.5,207.5C 296.833,207.5 298.167,207.5 299.5,207.5 Z"/></g>
<g><path style="opacity:0.999" fill="#142937" d="M 353.5,203.5 C 355.293,207.667 356.626,212 357.5,216.5C 355.876,216.64 354.71,215.973 354,214.5C 353.549,216.929 352.715,217.096 351.5,215C 353.905,213.385 353.905,212.719 351.5,213C 350.978,213.561 350.645,214.228 350.5,215C 351.32,216.8 351.986,218.634 352.5,220.5C 350.65,219.128 349.317,219.628 348.5,222C 346.833,222.333 345.167,222.667 343.5,223C 344.996,225.447 344.663,226.281 342.5,225.5C 342.261,223.533 342.594,221.699 343.5,220C 340.643,215.161 339.976,209.994 341.5,204.5C 341.203,201.864 341.703,199.197 343,196.5C 344.422,196.594 345.922,196.928 347.5,197.5C 348.589,200.59 350.589,202.59 353.5,203.5 Z"/></g>
<g><path style="opacity:1" fill="#0e2534" d="M 205.5,191.5 C 207.573,192.3 209.24,193.633 210.5,195.5C 210.5,207.167 210.5,218.833 210.5,230.5C 209.21,235.113 208.21,239.78 207.5,244.5C 207.5,242.833 207.5,241.167 207.5,239.5C 206.618,226.79 206.618,214.124 207.5,201.5C 206.003,198.47 204.67,195.303 203.5,192C 204.094,191.536 204.761,191.369 205.5,191.5 Z"/></g>
<g><path style="opacity:1" fill="#35647b" d="M 303.5,214.5 C 304.737,215.965 305.737,217.632 306.5,219.5C 305.778,219.918 305.278,220.584 305,221.5C 304.626,220.584 304.126,219.75 303.5,219C 299.729,218.525 296.229,217.359 293,215.5C 291.833,215.667 290.667,215.833 289.5,216C 290.38,217.356 290.714,218.856 290.5,220.5C 287.252,215.674 284.252,210.674 281.5,205.5C 282.897,205.205 284.397,204.871 286,204.5C 288.201,207.701 291.201,209.701 295,210.5C 298.452,209.079 300.286,210.413 300.5,214.5C 301.527,215.791 302.527,215.791 303.5,214.5 Z"/></g>
<g><path style="opacity:0.184" fill="#d4e0ea" d="M 301.5,198.5 C 310.56,206.291 315.56,215.958 316.5,227.5C 314.941,222.367 312.774,217.367 310,212.5C 306.893,207.944 304.06,203.277 301.5,198.5 Z"/></g>
<g><path style="opacity:1" fill="#172937" d="M 293.5,191.5 C 293.833,191.5 294.167,191.5 294.5,191.5C 295.811,194.811 298.145,197.145 301.5,198.5C 304.06,203.277 306.893,207.944 310,212.5C 312.774,217.367 314.941,222.367 316.5,227.5C 316.5,227.833 316.5,228.167 316.5,228.5C 316.631,229.239 316.464,229.906 316,230.5C 314.918,228.382 313.751,226.382 312.5,224.5C 311.542,224.047 310.708,223.381 310,222.5C 308.713,218.63 307.047,214.964 305,211.5C 304.241,209.937 303.074,208.937 301.5,208.5C 300.833,208.167 300.167,207.833 299.5,207.5C 297.204,203.234 294.204,199.567 290.5,196.5C 290.804,194.192 291.804,192.525 293.5,191.5 Z"/></g>
<g><path style="opacity:1" fill="#284959" d="M 177.5,223.5 C 176.065,224.79 175.065,226.456 174.5,228.5C 173.201,223.931 171.535,219.597 169.5,215.5C 167.801,215.473 166.467,214.806 165.5,213.5C 165.5,212.5 165.5,211.5 165.5,210.5C 169.264,210.091 172.93,210.091 176.5,210.5C 177.439,214.765 177.772,219.098 177.5,223.5 Z"/></g>
<g><path style="opacity:1" fill="#101f2b" d="M 174.5,192.5 C 175.931,192.881 176.764,193.881 177,195.5C 177.497,197.81 177.663,200.143 177.5,202.5C 174.044,203.886 170.544,205.219 167,206.5C 166.586,206.043 166.086,205.709 165.5,205.5C 164.676,208.785 164.176,212.118 164,215.5C 163.667,215.167 163.333,214.833 163,214.5C 160.888,216.922 158.888,216.922 157,214.5C 155.681,216.25 155.181,218.25 155.5,220.5C 155.703,226.144 153.203,228.144 148,226.5C 145.987,228.751 144.82,228.084 144.5,224.5C 147.63,217.036 152.297,210.703 158.5,205.5C 158.863,207.911 157.863,209.411 155.5,210C 157.02,211.23 157.853,212.397 158,213.5C 159.897,213.104 161.397,212.104 162.5,210.5C 162.531,207.723 163.031,205.056 164,202.5C 164.561,203.022 165.228,203.355 166,203.5C 169.137,202.639 172.303,201.973 175.5,201.5C 175.659,198.813 174.825,196.48 173,194.5C 172.329,195.252 171.496,195.586 170.5,195.5C 171.436,194.026 172.77,193.026 174.5,192.5 Z"/></g>
<g><path style="opacity:1" fill="#0c1e2a" d="M 200.5,237.5 C 199.542,237.953 198.708,238.619 198,239.5C 197.692,238.692 197.192,238.025 196.5,237.5C 194.981,238.851 193.648,240.351 192.5,242C 193.956,242.423 194.456,243.256 194,244.5C 192.644,245.38 191.144,245.714 189.5,245.5C 189.5,244.833 189.5,244.167 189.5,243.5C 192.968,233.252 194.302,222.585 193.5,211.5C 193.369,210.761 193.536,210.094 194,209.5C 194.653,211.564 195.82,213.231 197.5,214.5C 197.291,215.086 196.957,215.586 196.5,216C 197.872,216.631 199.205,217.298 200.5,218C 200.382,224.332 200.382,230.832 200.5,237.5 Z"/></g>
<g><path style="opacity:1" fill="#18384a" d="M 279.5,204.5 C 280.167,204.833 280.833,205.167 281.5,205.5C 284.252,210.674 287.252,215.674 290.5,220.5C 290.833,221.833 291.167,223.167 291.5,224.5C 286.958,219.443 281.791,214.11 276,208.5C 274.701,208.966 273.201,208.966 271.5,208.5C 267.476,205.469 263.476,202.469 259.5,199.5C 260.79,198.942 261.623,197.942 262,196.5C 263.471,200.901 265.971,201.901 269.5,199.5C 269.802,201.155 271.136,202.488 273.5,203.5C 274.086,203.291 274.586,202.957 275,202.5C 275.991,203.939 277.324,204.939 279,205.5C 279.399,205.272 279.565,204.938 279.5,204.5 Z"/></g>
<g><path style="opacity:1" fill="#142c3b" d="M 177.5,202.5 C 177.328,203.492 177.662,204.158 178.5,204.5C 178.5,210.5 178.5,216.5 178.5,222.5C 178.5,223.167 178.5,223.833 178.5,224.5C 177.833,224.5 177.5,224.167 177.5,223.5C 177.772,219.098 177.439,214.765 176.5,210.5C 172.93,210.091 169.264,210.091 165.5,210.5C 165.5,211.5 165.5,212.5 165.5,213.5C 165.037,216.482 164.704,219.482 164.5,222.5C 161.855,220.758 158.855,220.091 155.5,220.5C 155.181,218.25 155.681,216.25 157,214.5C 158.888,216.922 160.888,216.922 163,214.5C 163.333,214.833 163.667,215.167 164,215.5C 164.176,212.118 164.676,208.785 165.5,205.5C 166.086,205.709 166.586,206.043 167,206.5C 170.544,205.219 174.044,203.886 177.5,202.5 Z"/></g>
<g><path style="opacity:1" fill="#345667" d="M 165.5,213.5 C 166.467,214.806 167.801,215.473 169.5,215.5C 171.535,219.597 173.201,223.931 174.5,228.5C 175.065,226.456 176.065,224.79 177.5,223.5C 177.5,224.167 177.833,224.5 178.5,224.5C 178.397,233.476 175.73,241.476 170.5,248.5C 170.5,246.833 170.5,245.167 170.5,243.5C 175.823,238.594 175.656,233.927 170,229.5C 168.85,230.424 167.85,230.424 167,229.5C 165.608,231.842 164.775,231.842 164.5,229.5C 164.5,227.167 164.5,224.833 164.5,222.5C 164.704,219.482 165.037,216.482 165.5,213.5 Z"/></g>
<g><path style="opacity:1" fill="#b0cfd8" d="M 178.5,200.5 C 179.708,201.234 181.041,201.567 182.5,201.5C 182.491,203.308 182.991,204.975 184,206.5C 186.634,205.216 188.8,205.882 190.5,208.5C 192.104,216.052 191.437,223.386 188.5,230.5C 189.607,232.06 189.607,233.56 188.5,235C 189.022,235.95 189.689,236.784 190.5,237.5C 189.807,238.518 189.141,239.518 188.5,240.5C 186.958,239.699 185.292,239.366 183.5,239.5C 183.664,236.813 183.497,234.146 183,231.5C 181.359,235.77 179.525,239.77 177.5,243.5C 181.386,232.806 182.386,221.806 180.5,210.5C 179.833,214.647 179.166,218.647 178.5,222.5C 178.5,216.5 178.5,210.5 178.5,204.5C 178.5,203.167 178.5,201.833 178.5,200.5 Z"/></g>
<g><path style="opacity:1" fill="#0f2434" d="M 352.5,220.5 C 352.684,226.613 352.017,232.779 350.5,239C 350.493,240.812 351.16,242.312 352.5,243.5C 351.137,244.893 350.304,246.559 350,248.5C 349.612,244.781 348.945,241.114 348,237.5C 347.586,237.043 347.086,236.709 346.5,236.5C 344.816,241.688 344.149,247.022 344.5,252.5C 343.833,253.5 343.167,254.5 342.5,255.5C 342.5,245.5 342.5,235.5 342.5,225.5C 344.663,226.281 344.996,225.447 343.5,223C 345.167,222.667 346.833,222.333 348.5,222C 349.317,219.628 350.65,219.128 352.5,220.5 Z"/></g>
<g><path style="opacity:1" fill="#9cbcc6" d="M 189.5,196.5 C 191.28,201.486 192.613,206.486 193.5,211.5C 194.302,222.585 192.968,233.252 189.5,243.5C 188.596,242.791 188.263,241.791 188.5,240.5C 189.141,239.518 189.807,238.518 190.5,237.5C 189.689,236.784 189.022,235.95 188.5,235C 189.607,233.56 189.607,232.06 188.5,230.5C 191.437,223.386 192.104,216.052 190.5,208.5C 188.8,205.882 186.634,205.216 184,206.5C 182.991,204.975 182.491,203.308 182.5,201.5C 181.041,201.567 179.708,201.234 178.5,200.5C 178.5,199.167 178.5,197.833 178.5,196.5C 182.167,196.5 185.833,196.5 189.5,196.5 Z"/></g>
<g><path style="opacity:1" fill="#3f748b" d="M 306.5,219.5 C 308.428,223.285 309.762,227.285 310.5,231.5C 309.533,230.194 308.199,229.527 306.5,229.5C 306.649,228.448 306.483,227.448 306,226.5C 305.333,227.833 304.333,228.833 303,229.5C 299.399,227.591 296.066,225.258 293,222.5C 292.536,223.094 292.369,223.761 292.5,224.5C 292.167,224.5 291.833,224.5 291.5,224.5C 291.167,223.167 290.833,221.833 290.5,220.5C 290.714,218.856 290.38,217.356 289.5,216C 290.667,215.833 291.833,215.667 293,215.5C 296.229,217.359 299.729,218.525 303.5,219C 304.126,219.75 304.626,220.584 305,221.5C 305.278,220.584 305.778,219.918 306.5,219.5 Z"/></g>
<g><path style="opacity:1" fill="#4a849b" d="M 310.5,231.5 C 311.265,234.096 311.599,236.763 311.5,239.5C 309.571,240.006 307.905,241.006 306.5,242.5C 305.719,241.271 305.219,239.938 305,238.5C 301.818,239.02 298.651,239.353 295.5,239.5C 294.608,234.484 293.608,229.484 292.5,224.5C 292.369,223.761 292.536,223.094 293,222.5C 296.066,225.258 299.399,227.591 303,229.5C 304.333,228.833 305.333,227.833 306,226.5C 306.483,227.448 306.649,228.448 306.5,229.5C 308.199,229.527 309.533,230.194 310.5,231.5 Z"/></g>
<g><path style="opacity:0.996" fill="#112331" d="M 357.5,216.5 C 359.798,224.297 360.798,232.297 360.5,240.5C 357.786,240.687 357.119,241.854 358.5,244C 358.37,245.059 357.87,245.892 357,246.5C 356.02,244.941 355.187,243.274 354.5,241.5C 353.548,243.045 353.215,244.712 353.5,246.5C 352.883,246.389 352.383,246.056 352,245.5C 351.667,247.5 351.333,249.5 351,251.5C 350.667,250.833 350.333,250.167 350,249.5C 348.654,251.342 346.821,252.342 344.5,252.5C 344.149,247.022 344.816,241.688 346.5,236.5C 347.086,236.709 347.586,237.043 348,237.5C 348.945,241.114 349.612,244.781 350,248.5C 350.304,246.559 351.137,244.893 352.5,243.5C 351.16,242.312 350.493,240.812 350.5,239C 352.017,232.779 352.684,226.613 352.5,220.5C 351.986,218.634 351.32,216.8 350.5,215C 350.645,214.228 350.978,213.561 351.5,213C 353.905,212.719 353.905,213.385 351.5,215C 352.715,217.096 353.549,216.929 354,214.5C 354.71,215.973 355.876,216.64 357.5,216.5 Z"/></g>
<g><path style="opacity:1" fill="#162e3e" d="M 336.5,202.5 C 337.315,203.429 338.148,204.429 339,205.5C 339.671,204.748 340.504,204.414 341.5,204.5C 339.976,209.994 340.643,215.161 343.5,220C 342.594,221.699 342.261,223.533 342.5,225.5C 342.5,235.5 342.5,245.5 342.5,255.5C 341.833,260.167 341.167,264.833 340.5,269.5C 339.47,272.95 338.137,276.283 336.5,279.5C 336.435,273.02 337.268,266.687 339,260.5C 339.928,251.396 339.428,242.396 337.5,233.5C 335.841,232.183 334.674,230.517 334,228.5C 333.536,229.094 333.369,229.761 333.5,230.5C 333.167,230.5 332.833,230.5 332.5,230.5C 332.279,227.933 331.612,225.599 330.5,223.5C 330.5,222.833 330.5,222.167 330.5,221.5C 330.5,219.833 330.5,218.167 330.5,216.5C 334.667,216.846 336.5,219.18 336,223.5C 337.196,226.706 338.696,229.04 340.5,230.5C 341.556,227.669 341.556,224.669 340.5,221.5C 338.951,216.366 337.285,211.366 335.5,206.5C 335.433,205.041 335.766,203.708 336.5,202.5 Z"/></g>
<g><path style="opacity:1" fill="#183447" d="M 155.5,220.5 C 158.855,220.091 161.855,220.758 164.5,222.5C 164.5,224.833 164.5,227.167 164.5,229.5C 161.176,228.66 157.843,228.16 154.5,228C 152.746,231.341 151.413,234.841 150.5,238.5C 148.274,242.607 145.774,246.607 143,250.5C 142.5,244.175 142.334,237.842 142.5,231.5C 142.41,228.848 143.076,226.515 144.5,224.5C 144.82,228.084 145.987,228.751 148,226.5C 153.203,228.144 155.703,226.144 155.5,220.5 Z"/></g>
<g><path style="opacity:1" fill="#2b5368" d="M 164.5,229.5 C 164.775,231.842 165.608,231.842 167,229.5C 167.85,230.424 168.85,230.424 170,229.5C 175.656,233.927 175.823,238.594 170.5,243.5C 169.603,242.402 168.77,242.402 168,243.5C 166.956,242.377 166.29,241.044 166,239.5C 163.653,242.194 161.82,245.194 160.5,248.5C 158.153,244.298 154.819,240.965 150.5,238.5C 151.413,234.841 152.746,231.341 154.5,228C 157.843,228.16 161.176,228.66 164.5,229.5 Z"/></g>
<g><path style="opacity:1" fill="#a9cbd3" d="M 188.5,240.5 C 188.263,241.791 188.596,242.791 189.5,243.5C 189.5,244.167 189.5,244.833 189.5,245.5C 186.921,245.02 185.255,246.353 184.5,249.5C 185.609,250.965 185.109,251.965 183,252.5C 182.536,246.825 181.869,246.492 181,251.5C 180.517,250.552 180.351,249.552 180.5,248.5C 179.448,248.351 178.448,248.517 177.5,249C 176.76,250.785 176.093,252.618 175.5,254.5C 175.043,255.298 174.376,255.631 173.5,255.5C 174.633,251.433 175.967,247.433 177.5,243.5C 179.525,239.77 181.359,235.77 183,231.5C 183.497,234.146 183.664,236.813 183.5,239.5C 185.292,239.366 186.958,239.699 188.5,240.5 Z"/></g>
<g><path style="opacity:1" fill="#395d71" d="M 283.5,225.5 C 285.017,225.511 286.184,226.177 287,227.5C 288.806,232.416 290.306,237.416 291.5,242.5C 290.936,244.909 290.103,247.242 289,249.5C 288.223,252.429 288.39,255.263 289.5,258C 287.346,260.456 286.013,263.289 285.5,266.5C 285.782,268.568 284.949,270.568 283,272.5C 282.014,273.171 280.847,273.171 279.5,272.5C 288.166,257.493 289.5,241.827 283.5,225.5 Z"/></g>
<g><path style="opacity:1" fill="#5695ab" d="M 311.5,239.5 C 311.819,244.363 311.486,249.03 310.5,253.5C 310.323,246.866 309.823,246.866 309,253.5C 308.667,252.5 308.333,251.5 308,250.5C 307.781,251.938 307.281,253.271 306.5,254.5C 305.885,251.564 304.718,248.897 303,246.5C 301.989,247.337 300.822,247.67 299.5,247.5C 298.882,250.398 297.715,253.065 296,255.5C 295.617,254.944 295.117,254.611 294.5,254.5C 295.053,249.518 295.387,244.518 295.5,239.5C 298.651,239.353 301.818,239.02 305,238.5C 305.219,239.938 305.719,241.271 306.5,242.5C 307.905,241.006 309.571,240.006 311.5,239.5 Z"/></g>
<g><path style="opacity:0.995" fill="#11232f" d="M 360.5,240.5 C 360.697,246.545 360.363,252.545 359.5,258.5C 358.153,259.171 356.986,259.171 356,258.5C 355.647,259.672 355.813,260.838 356.5,262C 355.978,262.95 355.311,263.784 354.5,264.5C 355.288,266.329 354.788,267.996 353,269.5C 352.903,265.009 352.737,260.343 352.5,255.5C 353.179,252.552 353.512,249.552 353.5,246.5C 353.215,244.712 353.548,243.045 354.5,241.5C 355.187,243.274 356.02,244.941 357,246.5C 357.87,245.892 358.37,245.059 358.5,244C 357.119,241.854 357.786,240.687 360.5,240.5 Z"/></g>
<g><path style="opacity:1" fill="#214c62" d="M 271.5,208.5 C 273.201,208.966 274.701,208.966 276,208.5C 281.791,214.11 286.958,219.443 291.5,224.5C 291.833,224.5 292.167,224.5 292.5,224.5C 293.608,229.484 294.608,234.484 295.5,239.5C 295.387,244.518 295.053,249.518 294.5,254.5C 293.267,259.879 291.267,264.879 288.5,269.5C 287.833,268.167 286.833,267.167 285.5,266.5C 286.013,263.289 287.346,260.456 289.5,258C 288.39,255.263 288.223,252.429 289,249.5C 290.103,247.242 290.936,244.909 291.5,242.5C 290.306,237.416 288.806,232.416 287,227.5C 286.184,226.177 285.017,225.511 283.5,225.5C 280.729,218.956 276.729,213.29 271.5,208.5 Z"/></g>
<g><path style="opacity:1" fill="#5a9ab0" d="M 310.5,253.5 C 310.768,255.099 310.434,256.432 309.5,257.5C 308.796,255.656 307.463,255.156 305.5,256C 304.91,257.509 304.244,259.009 303.5,260.5C 300.44,262.696 297.107,264.363 293.5,265.5C 292.859,267.296 291.859,268.796 290.5,270C 294.444,274.72 294.111,279.22 289.5,283.5C 290.902,284.842 290.569,285.676 288.5,286C 289.563,287.188 290.897,287.688 292.5,287.5C 290.5,290.167 288.167,292.5 285.5,294.5C 284.778,294.082 284.278,293.416 284,292.5C 283.465,294.271 282.631,294.604 281.5,293.5C 280.289,292.28 280.289,291.113 281.5,290C 279.875,289.147 279.542,288.147 280.5,287C 276.624,287.349 276.624,286.516 280.5,284.5C 280.137,283.817 279.804,283.15 279.5,282.5C 282.915,278.424 285.915,274.091 288.5,269.5C 291.267,264.879 293.267,259.879 294.5,254.5C 295.117,254.611 295.617,254.944 296,255.5C 297.715,253.065 298.882,250.398 299.5,247.5C 300.822,247.67 301.989,247.337 303,246.5C 304.718,248.897 305.885,251.564 306.5,254.5C 307.281,253.271 307.781,251.938 308,250.5C 308.333,251.5 308.667,252.5 309,253.5C 309.823,246.866 310.323,246.866 310.5,253.5 Z"/></g>
<g><path style="opacity:0.425" fill="#3e4e56" d="M 210.5,195.5 C 211.167,195.5 211.833,195.5 212.5,195.5C 211.674,227.428 211.174,259.428 211,291.5C 209.007,292.914 206.84,293.914 204.5,294.5C 204.461,293.417 204.127,292.417 203.5,291.5C 204.391,290.41 205.391,290.41 206.5,291.5C 207.428,289.665 208.594,289.332 210,290.5C 210.49,289.207 210.657,287.873 210.5,286.5C 210.5,267.833 210.5,249.167 210.5,230.5C 210.5,218.833 210.5,207.167 210.5,195.5 Z"/></g>
<g><path style="opacity:1" fill="#83b0bd" d="M 332.5,230.5 C 332.833,230.5 333.167,230.5 333.5,230.5C 333.5,232.833 333.5,235.167 333.5,237.5C 333.82,240.898 333.487,244.232 332.5,247.5C 330.448,249.796 329.448,252.463 329.5,255.5C 327.45,257.237 325.617,259.237 324,261.5C 323.329,260.748 322.496,260.414 321.5,260.5C 321.5,259.833 321.5,259.167 321.5,258.5C 322.774,256.083 324.274,253.75 326,251.5C 326.499,247.848 326.665,244.182 326.5,240.5C 327.822,240.33 328.989,240.663 330,241.5C 331.904,238.077 332.737,234.41 332.5,230.5 Z"/></g>
<g><path style="opacity:1" fill="#0c202d" d="M 336.5,279.5 C 333.763,282.661 331.763,286.327 330.5,290.5C 329.675,291.386 328.675,291.719 327.5,291.5C 326.596,290.791 326.263,289.791 326.5,288.5C 325.5,288.5 324.5,288.5 323.5,288.5C 325.025,286.784 326.025,284.784 326.5,282.5C 327.695,280.249 328.695,277.915 329.5,275.5C 333.922,263.019 335.255,250.353 333.5,237.5C 333.5,235.167 333.5,232.833 333.5,230.5C 333.369,229.761 333.536,229.094 334,228.5C 334.674,230.517 335.841,232.183 337.5,233.5C 339.428,242.396 339.928,251.396 339,260.5C 337.268,266.687 336.435,273.02 336.5,279.5 Z"/></g>
<g><path style="opacity:1" fill="#43768d" d="M 142.5,231.5 C 142.334,237.842 142.5,244.175 143,250.5C 145.774,246.607 148.274,242.607 150.5,238.5C 154.819,240.965 158.153,244.298 160.5,248.5C 159.738,252.133 158.404,255.466 156.5,258.5C 155.354,256.525 153.687,255.025 151.5,254C 149,253.625 146.667,252.792 144.5,251.5C 143.817,251.863 143.15,252.196 142.5,252.5C 142.5,251.833 142.167,251.5 141.5,251.5C 141.176,244.646 141.509,237.979 142.5,231.5 Z"/></g>
<g><path style="opacity:1" fill="#284d5e" d="M 170.5,243.5 C 170.5,245.167 170.5,246.833 170.5,248.5C 166.276,256.057 160.943,262.724 154.5,268.5C 153.903,268.265 153.57,267.765 153.5,267C 154.803,264.256 155.803,261.423 156.5,258.5C 158.404,255.466 159.738,252.133 160.5,248.5C 161.82,245.194 163.653,242.194 166,239.5C 166.29,241.044 166.956,242.377 168,243.5C 168.77,242.402 169.603,242.402 170.5,243.5 Z"/></g>
<g><path style="opacity:1" fill="#0b1d2a" d="M 201.5,244.5 C 201.5,244.833 201.5,245.167 201.5,245.5C 198.704,253.092 195.37,260.425 191.5,267.5C 186.139,273.193 180.805,278.86 175.5,284.5C 174.055,286.063 172.389,287.396 170.5,288.5C 169.163,287.685 168.163,286.518 167.5,285C 170.731,285.989 173.064,284.822 174.5,281.5C 175.496,281.586 176.329,281.252 177,280.5C 177.667,276.5 180,274.167 184,273.5C 184.497,271.19 184.663,268.857 184.5,266.5C 186.408,266.117 187.908,265.117 189,263.5C 189.333,263.833 189.667,264.167 190,264.5C 190.61,261.978 191.943,259.978 194,258.5C 193.793,256.249 193.627,253.915 193.5,251.5C 194.552,251.649 195.552,251.483 196.5,251C 198.03,248.648 199.697,246.481 201.5,244.5 Z"/></g>
<g><path style="opacity:0.627" fill="#92bac6" d="M 330.5,223.5 C 331.612,225.599 332.279,227.933 332.5,230.5C 332.737,234.41 331.904,238.077 330,241.5C 328.989,240.663 327.822,240.33 326.5,240.5C 326.665,244.182 326.499,247.848 326,251.5C 324.274,253.75 322.774,256.083 321.5,258.5C 321.977,249.493 322.643,240.493 323.5,231.5C 324.748,230.96 325.915,230.293 327,229.5C 327.941,227.273 329.108,225.273 330.5,223.5 Z"/></g>
<g><path style="opacity:1" fill="#223745" d="M 312.5,224.5 C 313.751,226.382 314.918,228.382 316,230.5C 316.464,229.906 316.631,229.239 316.5,228.5C 319.845,238.888 320.345,249.555 318,260.5C 317.249,265.211 315.749,269.544 313.5,273.5C 313.607,271.621 313.107,271.288 312,272.5C 311.722,271.584 311.222,270.918 310.5,270.5C 313.189,265.457 315.022,260.124 316,254.5C 316.195,249.582 316.695,244.749 317.5,240C 315.338,235.012 313.671,229.845 312.5,224.5 Z"/></g>
<g><path style="opacity:1" fill="#113247" d="M 301.5,208.5 C 303.074,208.937 304.241,209.937 305,211.5C 307.047,214.964 308.713,218.63 310,222.5C 310.708,223.381 311.542,224.047 312.5,224.5C 313.671,229.845 315.338,235.012 317.5,240C 316.695,244.749 316.195,249.582 316,254.5C 315.022,260.124 313.189,265.457 310.5,270.5C 308.477,274.545 306.477,278.545 304.5,282.5C 301.057,282.353 299.057,284.02 298.5,287.5C 295.061,289.76 292.061,292.427 289.5,295.5C 285.532,296.625 282.198,298.792 279.5,302C 275.891,303.466 272.224,304.633 268.5,305.5C 269.167,304.833 269.833,304.167 270.5,303.5C 276.338,301.754 281.338,298.754 285.5,294.5C 288.167,292.5 290.5,290.167 292.5,287.5C 301.261,279.317 306.928,269.317 309.5,257.5C 310.434,256.432 310.768,255.099 310.5,253.5C 311.486,249.03 311.819,244.363 311.5,239.5C 311.599,236.763 311.265,234.096 310.5,231.5C 309.762,227.285 308.428,223.285 306.5,219.5C 305.737,217.632 304.737,215.965 303.5,214.5C 302.833,212.5 302.167,210.5 301.5,208.5 Z"/></g>
<g><path style="opacity:1" fill="#0c1b27" d="M 200.5,237.5 C 201.468,239.607 201.802,241.941 201.5,244.5C 199.697,246.481 198.03,248.648 196.5,251C 195.552,251.483 194.552,251.649 193.5,251.5C 193.627,253.915 193.793,256.249 194,258.5C 191.943,259.978 190.61,261.978 190,264.5C 189.667,264.167 189.333,263.833 189,263.5C 187.908,265.117 186.408,266.117 184.5,266.5C 186.808,263.801 188.475,260.634 189.5,257C 188.255,256.209 186.922,255.709 185.5,255.5C 187.029,252.246 188.362,248.913 189.5,245.5C 191.144,245.714 192.644,245.38 194,244.5C 194.456,243.256 193.956,242.423 192.5,242C 193.648,240.351 194.981,238.851 196.5,237.5C 197.192,238.025 197.692,238.692 198,239.5C 198.708,238.619 199.542,237.953 200.5,237.5 Z"/></g>
<g><path style="opacity:1" fill="#152d3c" d="M 207.5,239.5 C 207.5,241.167 207.5,242.833 207.5,244.5C 207.5,245.167 207.5,245.833 207.5,246.5C 206.419,255.177 203.085,262.844 197.5,269.5C 196.655,265.151 194.655,264.484 191.5,267.5C 195.37,260.425 198.704,253.092 201.5,245.5C 202.434,244.432 202.768,243.099 202.5,241.5C 203.75,241.577 204.583,242.244 205,243.5C 205.374,242.584 205.874,241.75 206.5,241C 205.288,239.893 205.621,239.393 207.5,239.5 Z"/></g>
<g><path style="opacity:1" fill="#77a4b3" d="M 314.5,280.5 C 317.258,273.887 319.592,267.221 321.5,260.5C 322.496,260.414 323.329,260.748 324,261.5C 325.617,259.237 327.45,257.237 329.5,255.5C 330.558,254.4 331.392,253.066 332,251.5C 332.409,257.121 331.409,262.455 329,267.5C 328.333,266.167 327.667,266.167 327,267.5C 326.059,265.939 324.892,264.605 323.5,263.5C 321.662,267.556 320.495,271.556 320,275.5C 318.266,277.234 316.932,279.234 316,281.5C 315.617,280.944 315.117,280.611 314.5,280.5 Z"/></g>
<g><path style="opacity:1" fill="#4f8ea4" d="M 156.5,258.5 C 155.803,261.423 154.803,264.256 153.5,267C 153.57,267.765 153.903,268.265 154.5,268.5C 153.833,269.833 152.833,270.833 151.5,271.5C 152.292,270.033 152.292,268.7 151.5,267.5C 150.037,267.632 148.537,267.965 147,268.5C 146.055,268.095 145.388,267.428 145,266.5C 144.83,268.715 144.163,270.715 143,272.5C 142.5,265.842 142.334,259.175 142.5,252.5C 143.15,252.196 143.817,251.863 144.5,251.5C 146.667,252.792 149,253.625 151.5,254C 153.687,255.025 155.354,256.525 156.5,258.5 Z"/></g>
<g><path style="opacity:0.989" fill="#0c1d2a" d="M 210.5,230.5 C 210.5,249.167 210.5,267.833 210.5,286.5C 209.129,288.17 207.629,288.836 206,288.5C 204.663,286.996 202.996,285.996 201,285.5C 200.692,286.308 200.192,286.975 199.5,287.5C 198.913,286.767 198.913,285.767 199.5,284.5C 200.348,282.907 201.681,281.74 203.5,281C 202.464,279.383 201.297,279.216 200,280.5C 199.833,279.667 199.667,278.833 199.5,278C 201.201,273.896 202.701,269.729 204,265.5C 204.333,267.167 204.667,268.833 205,270.5C 204.878,265.979 206.211,261.979 209,258.5C 209.667,254.833 209.667,251.167 209,247.5C 207.913,249.932 207.413,249.598 207.5,246.5C 207.5,245.833 207.5,245.167 207.5,244.5C 208.21,239.78 209.21,235.113 210.5,230.5 Z"/></g>
<g><path style="opacity:1" fill="#5fa4b7" d="M 309.5,257.5 C 306.928,269.317 301.261,279.317 292.5,287.5C 290.897,287.688 289.563,287.188 288.5,286C 290.569,285.676 290.902,284.842 289.5,283.5C 294.111,279.22 294.444,274.72 290.5,270C 291.859,268.796 292.859,267.296 293.5,265.5C 297.107,264.363 300.44,262.696 303.5,260.5C 304.244,259.009 304.91,257.509 305.5,256C 307.463,255.156 308.796,255.656 309.5,257.5 Z"/></g>
<g><path style="opacity:1" fill="#122430" d="M 352.5,255.5 C 352.737,260.343 352.903,265.009 353,269.5C 354.788,267.996 355.288,266.329 354.5,264.5C 355.311,263.784 355.978,262.95 356.5,262C 355.813,260.838 355.647,259.672 356,258.5C 356.986,259.171 358.153,259.171 359.5,258.5C 358.387,266.968 356.054,274.968 352.5,282.5C 352.082,281.778 351.416,281.278 350.5,281C 352.689,280.323 353.022,279.156 351.5,277.5C 352.167,276.833 352.833,276.167 353.5,275.5C 352.289,274.28 352.289,273.113 353.5,272C 351.744,271.798 350.078,271.298 348.5,270.5C 347.385,269.402 347.385,268.235 348.5,267C 345.61,265.108 345.944,264.275 349.5,264.5C 349.5,263.5 349.5,262.5 349.5,261.5C 347.708,261.366 346.042,261.699 344.5,262.5C 344.389,261.883 344.056,261.383 343.5,261C 345.004,259.663 346.004,257.996 346.5,256C 348.669,257.114 350.502,256.614 352,254.5C 352.399,254.728 352.565,255.062 352.5,255.5 Z"/></g>
<g><path style="opacity:1" fill="#9dc1cb" d="M 189.5,245.5 C 188.362,248.913 187.029,252.246 185.5,255.5C 182.821,260.194 180.155,264.861 177.5,269.5C 171.312,276.933 164.645,283.933 157.5,290.5C 157.672,289.508 157.338,288.842 156.5,288.5C 159.415,283.581 163.081,279.248 167.5,275.5C 168.086,275.709 168.586,276.043 169,276.5C 171.29,273.42 173.457,270.253 175.5,267C 175,266.5 174.5,266 174,265.5C 173.077,266.759 172.243,268.092 171.5,269.5C 170.095,268.006 168.429,267.006 166.5,266.5C 168.446,262.561 170.779,258.894 173.5,255.5C 174.376,255.631 175.043,255.298 175.5,254.5C 176.093,252.618 176.76,250.785 177.5,249C 178.448,248.517 179.448,248.351 180.5,248.5C 180.351,249.552 180.517,250.552 181,251.5C 181.869,246.492 182.536,246.825 183,252.5C 185.109,251.965 185.609,250.965 184.5,249.5C 185.255,246.353 186.921,245.02 189.5,245.5 Z"/></g>
<g><path style="opacity:1" fill="#0c1e2e" d="M 353.5,246.5 C 353.512,249.552 353.179,252.552 352.5,255.5C 352.565,255.062 352.399,254.728 352,254.5C 350.502,256.614 348.669,257.114 346.5,256C 346.004,257.996 345.004,259.663 343.5,261C 344.056,261.383 344.389,261.883 344.5,262.5C 345.506,267.82 345.839,273.32 345.5,279C 343.239,282.102 341.906,281.602 341.5,277.5C 340.778,274.646 340.444,271.98 340.5,269.5C 341.167,264.833 341.833,260.167 342.5,255.5C 343.167,254.5 343.833,253.5 344.5,252.5C 346.821,252.342 348.654,251.342 350,249.5C 350.333,250.167 350.667,250.833 351,251.5C 351.333,249.5 351.667,247.5 352,245.5C 352.383,246.056 352.883,246.389 353.5,246.5 Z"/></g>
<g><path style="opacity:1" fill="#0c1c29" d="M 352.5,282.5 C 352.5,282.833 352.5,283.167 352.5,283.5C 349.935,283.155 348.101,284.488 347,287.5C 346.431,283.639 345.598,283.639 344.5,287.5C 343.808,286.975 343.308,286.308 343,285.5C 342.667,285.833 342.333,286.167 342,286.5C 340.241,283.65 340.074,280.65 341.5,277.5C 341.906,281.602 343.239,282.102 345.5,279C 345.839,273.32 345.506,267.82 344.5,262.5C 346.042,261.699 347.708,261.366 349.5,261.5C 349.5,262.5 349.5,263.5 349.5,264.5C 345.944,264.275 345.61,265.108 348.5,267C 347.385,268.235 347.385,269.402 348.5,270.5C 350.078,271.298 351.744,271.798 353.5,272C 352.289,273.113 352.289,274.28 353.5,275.5C 352.833,276.167 352.167,276.833 351.5,277.5C 353.022,279.156 352.689,280.323 350.5,281C 351.416,281.278 352.082,281.778 352.5,282.5 Z"/></g>
<g><path style="opacity:1" fill="#0e212f" d="M 207.5,246.5 C 207.413,249.598 207.913,249.932 209,247.5C 209.667,251.167 209.667,254.833 209,258.5C 206.211,261.979 204.878,265.979 205,270.5C 204.667,268.833 204.333,267.167 204,265.5C 202.701,269.729 201.201,273.896 199.5,278C 199.667,278.833 199.833,279.667 200,280.5C 201.297,279.216 202.464,279.383 203.5,281C 201.681,281.74 200.348,282.907 199.5,284.5C 197.412,286.889 194.745,288.555 191.5,289.5C 191.063,287.926 190.063,286.759 188.5,286C 191.07,284.651 191.07,283.484 188.5,282.5C 189.833,280.833 191.167,279.167 192.5,277.5C 195.388,275.609 197.055,272.942 197.5,269.5C 203.085,262.844 206.419,255.177 207.5,246.5 Z"/></g>
<g><path style="opacity:1" fill="#0d1a26" d="M 185.5,255.5 C 186.922,255.709 188.255,256.209 189.5,257C 188.475,260.634 186.808,263.801 184.5,266.5C 184.663,268.857 184.497,271.19 184,273.5C 180,274.167 177.667,276.5 177,280.5C 176.329,281.252 175.496,281.586 174.5,281.5C 173.022,281.762 171.689,281.429 170.5,280.5C 172.455,278.174 174.455,275.841 176.5,273.5C 177.246,272.264 177.579,270.93 177.5,269.5C 180.155,264.861 182.821,260.194 185.5,255.5 Z"/></g>
<g><path style="opacity:1" fill="#23495c" d="M 285.5,266.5 C 286.833,267.167 287.833,268.167 288.5,269.5C 285.915,274.091 282.915,278.424 279.5,282.5C 273.687,287.575 267.354,291.908 260.5,295.5C 259.833,295.833 259.167,296.167 258.5,296.5C 258.189,295.522 257.522,294.855 256.5,294.5C 252.41,295.304 248.076,295.97 243.5,296.5C 257.535,291.488 269.535,283.488 279.5,272.5C 280.847,273.171 282.014,273.171 283,272.5C 284.949,270.568 285.782,268.568 285.5,266.5 Z"/></g>
<g><path style="opacity:1" fill="#1c3849" d="M 197.5,269.5 C 197.055,272.942 195.388,275.609 192.5,277.5C 191.022,277.792 189.356,277.792 187.5,277.5C 185.045,280.558 182.045,282.891 178.5,284.5C 177.5,284.5 176.5,284.5 175.5,284.5C 180.805,278.86 186.139,273.193 191.5,267.5C 194.655,264.484 196.655,265.151 197.5,269.5 Z"/></g>
<g><path style="opacity:1" fill="#6faabc" d="M 141.5,251.5 C 142.167,251.5 142.5,251.833 142.5,252.5C 142.334,259.175 142.5,265.842 143,272.5C 144.163,270.715 144.83,268.715 145,266.5C 145.388,267.428 146.055,268.095 147,268.5C 148.537,267.965 150.037,267.632 151.5,267.5C 152.292,268.7 152.292,270.033 151.5,271.5C 149.001,274.169 146.668,277.002 144.5,280C 143.552,280.483 142.552,280.649 141.5,280.5C 141.5,270.833 141.5,261.167 141.5,251.5 Z"/></g>
<g><path style="opacity:1" fill="#5a8ca1" d="M 329.5,275.5 C 328.695,277.915 327.695,280.249 326.5,282.5C 324.743,283.292 323.409,284.625 322.5,286.5C 321.808,285.975 321.308,285.308 321,284.5C 317.801,288.935 314.635,293.269 311.5,297.5C 310.178,297.67 309.011,297.337 308,296.5C 307.116,299.653 305.95,299.986 304.5,297.5C 308.083,295.258 311.083,292.425 313.5,289C 312.131,286.761 312.631,284.927 315,283.5C 315.667,286.167 316.333,286.167 317,283.5C 317.333,283.833 317.667,284.167 318,284.5C 321.079,279.731 324.246,275.064 327.5,270.5C 328.17,272.291 328.837,273.958 329.5,275.5 Z"/></g>
<g><path style="opacity:1" fill="#a2c7d3" d="M 156.5,288.5 C 153.833,288.5 151.167,288.5 148.5,288.5C 151.35,284.136 154.85,280.136 159,276.5C 161.277,272.92 163.777,269.586 166.5,266.5C 168.429,267.006 170.095,268.006 171.5,269.5C 172.243,268.092 173.077,266.759 174,265.5C 174.5,266 175,266.5 175.5,267C 173.457,270.253 171.29,273.42 169,276.5C 168.586,276.043 168.086,275.709 167.5,275.5C 163.081,279.248 159.415,283.581 156.5,288.5 Z"/></g>
<g><path style="opacity:1" fill="#0e1f2a" d="M 177.5,269.5 C 177.579,270.93 177.246,272.264 176.5,273.5C 174.455,275.841 172.455,278.174 170.5,280.5C 171.689,281.429 173.022,281.762 174.5,281.5C 173.064,284.822 170.731,285.989 167.5,285C 168.163,286.518 169.163,287.685 170.5,288.5C 166.457,292.509 162.457,296.509 158.5,300.5C 156.411,301.396 154.245,302.396 152,303.5C 150.812,302.437 150.312,301.103 150.5,299.5C 152.482,296.19 154.815,293.19 157.5,290.5C 164.645,283.933 171.312,276.933 177.5,269.5 Z"/></g>
<g><path style="opacity:1" fill="#6996a9" d="M 333.5,237.5 C 335.255,250.353 333.922,263.019 329.5,275.5C 328.837,273.958 328.17,272.291 327.5,270.5C 324.246,275.064 321.079,279.731 318,284.5C 317.667,284.167 317.333,283.833 317,283.5C 316.333,286.167 315.667,286.167 315,283.5C 312.631,284.927 312.131,286.761 313.5,289C 311.083,292.425 308.083,295.258 304.5,297.5C 304.565,297.062 304.399,296.728 304,296.5C 303.137,300.518 300.637,302.518 296.5,302.5C 302.848,295.482 308.848,288.149 314.5,280.5C 315.117,280.611 315.617,280.944 316,281.5C 316.932,279.234 318.266,277.234 320,275.5C 320.495,271.556 321.662,267.556 323.5,263.5C 324.892,264.605 326.059,265.939 327,267.5C 327.667,266.167 328.333,266.167 329,267.5C 331.409,262.455 332.409,257.121 332,251.5C 331.392,253.066 330.558,254.4 329.5,255.5C 329.448,252.463 330.448,249.796 332.5,247.5C 333.487,244.232 333.82,240.898 333.5,237.5 Z"/></g>
<g><path style="opacity:1" fill="#10222e" d="M 340.5,269.5 C 340.444,271.98 340.778,274.646 341.5,277.5C 340.074,280.65 340.241,283.65 342,286.5C 342.333,286.167 342.667,285.833 343,285.5C 343.308,286.308 343.808,286.975 344.5,287.5C 345.598,283.639 346.431,283.639 347,287.5C 348.101,284.488 349.935,283.155 352.5,283.5C 348.694,293.786 343.361,303.12 336.5,311.5C 335.389,308.038 336.555,305.372 340,303.5C 339.773,301.426 339.939,299.426 340.5,297.5C 339.15,296.05 337.484,295.383 335.5,295.5C 335.509,293.692 335.009,292.025 334,290.5C 330.075,296.271 325.908,301.938 321.5,307.5C 321.167,307.167 320.833,306.833 320.5,306.5C 321.847,302.647 323.847,299.147 326.5,296C 326.989,294.436 327.322,292.936 327.5,291.5C 328.675,291.719 329.675,291.386 330.5,290.5C 331.763,286.327 333.763,282.661 336.5,279.5C 338.137,276.283 339.47,272.95 340.5,269.5 Z"/></g>
<g><path style="opacity:1" fill="#0c1e29" d="M 199.5,284.5 C 198.913,285.767 198.913,286.767 199.5,287.5C 200.192,286.975 200.692,286.308 201,285.5C 202.996,285.996 204.663,286.996 206,288.5C 207.629,288.836 209.129,288.17 210.5,286.5C 210.657,287.873 210.49,289.207 210,290.5C 208.594,289.332 207.428,289.665 206.5,291.5C 205.391,290.41 204.391,290.41 203.5,291.5C 204.127,292.417 204.461,293.417 204.5,294.5C 203.609,295.11 202.609,295.443 201.5,295.5C 200.417,295.461 199.417,295.127 198.5,294.5C 196.615,295.72 194.282,297.053 191.5,298.5C 190.646,297.478 189.646,296.645 188.5,296C 191.145,294.713 192.145,292.547 191.5,289.5C 194.745,288.555 197.412,286.889 199.5,284.5 Z"/></g>
<g><path style="opacity:1" fill="#122633" d="M 188.5,282.5 C 191.07,283.484 191.07,284.651 188.5,286C 190.063,286.759 191.063,287.926 191.5,289.5C 192.145,292.547 191.145,294.713 188.5,296C 189.646,296.645 190.646,297.478 191.5,298.5C 194.282,297.053 196.615,295.72 198.5,294.5C 199.417,295.127 200.417,295.461 201.5,295.5C 188.233,302.803 174.9,310.137 161.5,317.5C 160.441,315.274 160.608,312.941 162,310.5C 166.294,304.373 171.127,298.706 176.5,293.5C 180.5,289.833 184.5,286.167 188.5,282.5 Z"/></g>
<g><path style="opacity:0.999" fill="#0a1b28" d="M 323.5,288.5 C 324.5,288.5 325.5,288.5 326.5,288.5C 326.263,289.791 326.596,290.791 327.5,291.5C 327.322,292.936 326.989,294.436 326.5,296C 323.847,299.147 321.847,302.647 320.5,306.5C 320.833,306.833 321.167,307.167 321.5,307.5C 325.908,301.938 330.075,296.271 334,290.5C 335.009,292.025 335.509,293.692 335.5,295.5C 337.484,295.383 339.15,296.05 340.5,297.5C 339.939,299.426 339.773,301.426 340,303.5C 336.555,305.372 335.389,308.038 336.5,311.5C 336.5,312.167 336.167,312.5 335.5,312.5C 334.417,312.461 333.417,312.127 332.5,311.5C 330.774,313.03 328.774,314.03 326.5,314.5C 325.548,316.045 325.215,317.712 325.5,319.5C 322.955,319.151 320.955,319.984 319.5,322C 320.167,322.333 320.833,322.667 321.5,323C 318.774,323.182 316.107,323.682 313.5,324.5C 310.779,326.845 311.112,328.678 314.5,330C 312.965,330.496 311.465,330.33 310,329.5C 308.97,329.836 308.47,330.503 308.5,331.5C 304.61,332.85 300.277,333.517 295.5,333.5C 295.5,332.5 295.5,331.5 295.5,330.5C 298.899,330.45 300.232,328.95 299.5,326C 302.405,324.963 305.239,323.796 308,322.5C 308.333,322.833 308.667,323.167 309,323.5C 310.439,321.725 311.439,319.725 312,317.5C 314.167,316.667 315.667,315.167 316.5,313C 316,312.5 315.5,312 315,311.5C 312.955,312.887 310.788,314.054 308.5,315C 305.58,314.237 303.247,314.903 301.5,317C 303.422,318.46 304.089,320.127 303.5,322C 302.892,322.87 302.059,323.37 301,323.5C 299.003,322.34 297.169,322.34 295.5,323.5C 291.784,325.837 287.784,327.837 283.5,329.5C 282.817,329.137 282.15,328.804 281.5,328.5C 286.167,325.5 290.833,322.5 295.5,319.5C 307.359,311.45 316.692,301.117 323.5,288.5 Z"/></g>
<g><path style="opacity:1" fill="#1d3c4f" d="M 175.5,284.5 C 176.5,284.5 177.5,284.5 178.5,284.5C 176.877,285.779 175.21,287.113 173.5,288.5C 174.668,289.906 174.335,291.072 172.5,292C 168.609,294.489 165.275,297.489 162.5,301C 162.833,301.333 163.167,301.667 163.5,302C 161.481,302.45 159.648,303.283 158,304.5C 157.826,307.46 156.66,309.794 154.5,311.5C 152.581,313.82 150.581,316.153 148.5,318.5C 148.124,321.389 146.624,323.389 144,324.5C 143.536,323.906 143.369,323.239 143.5,322.5C 148.34,317.792 151.84,312.125 154,305.5C 156.2,304.349 157.7,302.682 158.5,300.5C 162.457,296.509 166.457,292.509 170.5,288.5C 172.389,287.396 174.055,286.063 175.5,284.5 Z"/></g>
<g><path style="opacity:1" fill="#182b38" d="M 310.5,270.5 C 311.222,270.918 311.722,271.584 312,272.5C 313.107,271.288 313.607,271.621 313.5,273.5C 313.108,275.179 312.608,276.846 312,278.5C 308.333,283.833 304.667,289.167 301,294.5C 298.412,297.2 295.579,299.533 292.5,301.5C 291.158,299.639 290.158,297.639 289.5,295.5C 292.061,292.427 295.061,289.76 298.5,287.5C 299.057,284.02 301.057,282.353 304.5,282.5C 306.477,278.545 308.477,274.545 310.5,270.5 Z"/></g>
<g><path style="opacity:1" fill="#204459" d="M 192.5,277.5 C 191.167,279.167 189.833,280.833 188.5,282.5C 184.5,286.167 180.5,289.833 176.5,293.5C 176.565,293.062 176.399,292.728 176,292.5C 174.255,293.956 172.422,295.289 170.5,296.5C 167.857,300.977 164.357,304.643 160,307.5C 159.667,307.167 159.333,306.833 159,306.5C 158.712,309.287 157.212,310.953 154.5,311.5C 156.66,309.794 157.826,307.46 158,304.5C 159.648,303.283 161.481,302.45 163.5,302C 163.167,301.667 162.833,301.333 162.5,301C 165.275,297.489 168.609,294.489 172.5,292C 174.335,291.072 174.668,289.906 173.5,288.5C 175.21,287.113 176.877,285.779 178.5,284.5C 182.045,282.891 185.045,280.558 187.5,277.5C 189.356,277.792 191.022,277.792 192.5,277.5 Z"/></g>
<g><path style="opacity:1" fill="#478098" d="M 279.5,282.5 C 279.804,283.15 280.137,283.817 280.5,284.5C 276.624,286.516 276.624,287.349 280.5,287C 279.542,288.147 279.875,289.147 281.5,290C 280.289,291.113 280.289,292.28 281.5,293.5C 282.631,294.604 283.465,294.271 284,292.5C 284.278,293.416 284.778,294.082 285.5,294.5C 281.338,298.754 276.338,301.754 270.5,303.5C 269.312,302.316 268.145,302.316 267,303.5C 265.178,301.096 263.844,298.43 263,295.5C 262.023,296.774 261.189,296.774 260.5,295.5C 267.354,291.908 273.687,287.575 279.5,282.5 Z"/></g>
<g><path style="opacity:1" fill="#162c39" d="M 150.5,299.5 C 150.312,301.103 150.812,302.437 152,303.5C 154.245,302.396 156.411,301.396 158.5,300.5C 157.7,302.682 156.2,304.349 154,305.5C 151.84,312.125 148.34,317.792 143.5,322.5C 142.549,321.081 142.216,319.415 142.5,317.5C 143.054,310.486 145.72,304.486 150.5,299.5 Z"/></g>
<g><path style="opacity:1" fill="#58879c" d="M 304.5,297.5 C 305.95,299.986 307.116,299.653 308,296.5C 309.011,297.337 310.178,297.67 311.5,297.5C 311.461,298.583 311.127,299.583 310.5,300.5C 305.523,303.496 301.69,307.496 299,312.5C 298.023,311.226 297.189,311.226 296.5,312.5C 295.25,312.423 294.417,311.756 294,310.5C 291.379,310.704 288.545,310.704 285.5,310.5C 289.143,307.865 292.81,305.199 296.5,302.5C 300.637,302.518 303.137,300.518 304,296.5C 304.399,296.728 304.565,297.062 304.5,297.5 Z"/></g>
<g><path style="opacity:1" fill="#112837" d="M 289.5,295.5 C 290.158,297.639 291.158,299.639 292.5,301.5C 288.135,305.189 283.469,308.522 278.5,311.5C 278.22,308.612 279.553,307.112 282.5,307C 281.975,306.308 281.308,305.808 280.5,305.5C 278.629,306.767 276.796,306.767 275,305.5C 274.5,306.5 274,307.5 273.5,308.5C 267.513,308.766 262.013,310.432 257,313.5C 256.722,312.584 256.222,311.918 255.5,311.5C 259.645,309.264 263.978,307.264 268.5,305.5C 272.224,304.633 275.891,303.466 279.5,302C 282.198,298.792 285.532,296.625 289.5,295.5 Z"/></g>
<g><path style="opacity:1" fill="#366980" d="M 260.5,295.5 C 261.189,296.774 262.023,296.774 263,295.5C 263.844,298.43 265.178,301.096 267,303.5C 268.145,302.316 269.312,302.316 270.5,303.5C 269.833,304.167 269.167,304.833 268.5,305.5C 263.978,307.264 259.645,309.264 255.5,311.5C 254.833,311.5 254.167,311.5 253.5,311.5C 251.234,311.859 249.401,311.192 248,309.5C 247.667,309.833 247.333,310.167 247,310.5C 246.333,309.5 246.333,308.5 247,307.5C 247.333,307.833 247.667,308.167 248,308.5C 250.145,306.105 249.978,303.938 247.5,302C 248.056,301.617 248.389,301.117 248.5,300.5C 251.918,299.361 255.251,298.028 258.5,296.5C 259.167,296.167 259.833,295.833 260.5,295.5 Z"/></g>
<g><path style="opacity:1" fill="#43758c" d="M 326.5,282.5 C 326.025,284.784 325.025,286.784 323.5,288.5C 316.692,301.117 307.359,311.45 295.5,319.5C 293.435,319.483 291.435,319.15 289.5,318.5C 291.647,316.263 293.98,314.263 296.5,312.5C 297.189,311.226 298.023,311.226 299,312.5C 301.69,307.496 305.523,303.496 310.5,300.5C 311.127,299.583 311.461,298.583 311.5,297.5C 314.635,293.269 317.801,288.935 321,284.5C 321.308,285.308 321.808,285.975 322.5,286.5C 323.409,284.625 324.743,283.292 326.5,282.5 Z"/></g>
<g><path style="opacity:1" fill="#264d62" d="M 248.5,300.5 C 248.389,301.117 248.056,301.617 247.5,302C 249.978,303.938 250.145,306.105 248,308.5C 247.667,308.167 247.333,307.833 247,307.5C 246.333,308.5 246.333,309.5 247,310.5C 247.333,310.167 247.667,309.833 248,309.5C 249.401,311.192 251.234,311.859 253.5,311.5C 248.751,313.305 244.085,315.305 239.5,317.5C 232.259,319.476 224.926,321.143 217.5,322.5C 218.263,321.732 219.263,321.232 220.5,321C 219.833,320.667 219.167,320.333 218.5,320C 220.5,319.667 222.5,319.333 224.5,319C 224.167,318.667 223.833,318.333 223.5,318C 225.448,317.017 227.282,315.85 229,314.5C 228.852,313.175 229.018,312.008 229.5,311C 228.5,310.667 227.5,310.333 226.5,310C 233.007,305.033 240.341,301.866 248.5,300.5 Z"/></g>
<g><path style="opacity:1" fill="#11222e" d="M 278.5,311.5 C 271.899,315.633 264.899,318.967 257.5,321.5C 255.565,320.85 253.565,320.517 251.5,320.5C 251.36,318.876 252.027,317.71 253.5,317C 252.833,316.667 252.167,316.333 251.5,316C 254.072,315.568 255.406,314.068 255.5,311.5C 256.222,311.918 256.722,312.584 257,313.5C 262.013,310.432 267.513,308.766 273.5,308.5C 274,307.5 274.5,306.5 275,305.5C 276.796,306.767 278.629,306.767 280.5,305.5C 281.308,305.808 281.975,306.308 282.5,307C 279.553,307.112 278.22,308.612 278.5,311.5 Z"/></g>
<g><path style="opacity:1" fill="#1c3b4d" d="M 258.5,296.5 C 255.251,298.028 251.918,299.361 248.5,300.5C 240.341,301.866 233.007,305.033 226.5,310C 227.5,310.333 228.5,310.667 229.5,311C 229.018,312.008 228.852,313.175 229,314.5C 227.282,315.85 225.448,317.017 223.5,318C 223.833,318.333 224.167,318.667 224.5,319C 222.5,319.333 220.5,319.667 218.5,320C 219.167,320.333 219.833,320.667 220.5,321C 219.263,321.232 218.263,321.732 217.5,322.5C 211.943,325.157 205.943,326.824 199.5,327.5C 201.55,324.959 204.216,323.126 207.5,322C 206.833,321.667 206.167,321.333 205.5,321C 208.257,320.122 210.924,319.122 213.5,318C 212.833,317.667 212.167,317.333 211.5,317C 213.812,315.686 215.812,314.019 217.5,312C 217.252,310.251 216.252,309.418 214.5,309.5C 223.743,304.381 233.41,300.048 243.5,296.5C 248.076,295.97 252.41,295.304 256.5,294.5C 257.522,294.855 258.189,295.522 258.5,296.5 Z"/></g>
<g><path style="opacity:1" fill="#376275" d="M 176.5,293.5 C 171.127,298.706 166.294,304.373 162,310.5C 160.608,312.941 160.441,315.274 161.5,317.5C 154.933,321.384 148.6,325.718 142.5,330.5C 141.189,326.016 141.189,321.683 142.5,317.5C 142.216,319.415 142.549,321.081 143.5,322.5C 143.369,323.239 143.536,323.906 144,324.5C 146.624,323.389 148.124,321.389 148.5,318.5C 150.581,316.153 152.581,313.82 154.5,311.5C 157.212,310.953 158.712,309.287 159,306.5C 159.333,306.833 159.667,307.167 160,307.5C 164.357,304.643 167.857,300.977 170.5,296.5C 172.422,295.289 174.255,293.956 176,292.5C 176.399,292.728 176.565,293.062 176.5,293.5 Z"/></g>
<g><path style="opacity:1" fill="#142631" d="M 253.5,311.5 C 254.167,311.5 254.833,311.5 255.5,311.5C 255.406,314.068 254.072,315.568 251.5,316C 252.167,316.333 252.833,316.667 253.5,317C 252.027,317.71 251.36,318.876 251.5,320.5C 253.565,320.517 255.565,320.85 257.5,321.5C 239.657,328.669 221.324,334.669 202.5,339.5C 203.552,337.744 205.219,337.077 207.5,337.5C 207.5,336.167 207.5,334.833 207.5,333.5C 208.822,333.67 209.989,333.337 211,332.5C 211.333,333.167 211.667,333.833 212,334.5C 215.275,334.081 218.109,332.747 220.5,330.5C 219.494,329.604 219.494,328.938 220.5,328.5C 221.719,329.263 222.719,330.263 223.5,331.5C 225.453,330.239 227.453,329.073 229.5,328C 228.451,327.508 227.451,327.674 226.5,328.5C 225.476,327.147 224.143,326.48 222.5,326.5C 223.234,325.292 223.567,323.959 223.5,322.5C 229.291,322.013 234.624,320.346 239.5,317.5C 244.085,315.305 248.751,313.305 253.5,311.5 Z"/></g>
<g><path style="opacity:1" fill="#4e8097" d="M 285.5,310.5 C 288.545,310.704 291.379,310.704 294,310.5C 294.417,311.756 295.25,312.423 296.5,312.5C 293.98,314.263 291.647,316.263 289.5,318.5C 285.326,321.088 280.993,323.421 276.5,325.5C 276.881,323.058 276.214,322.391 274.5,323.5C 274.891,322.282 274.224,321.448 272.5,321C 273.833,320.667 275.167,320.333 276.5,320C 279.29,318.265 281.29,316.432 282.5,314.5C 283.086,314.709 283.586,315.043 284,315.5C 284.608,313.846 285.108,312.179 285.5,310.5 Z"/></g>
<g><path style="opacity:1" fill="#19303f" d="M 214.5,309.5 C 216.252,309.418 217.252,310.251 217.5,312C 215.812,314.019 213.812,315.686 211.5,317C 212.167,317.333 212.833,317.667 213.5,318C 210.924,319.122 208.257,320.122 205.5,321C 206.167,321.333 206.833,321.667 207.5,322C 204.216,323.126 201.55,324.959 199.5,327.5C 195.78,329.573 191.78,330.739 187.5,331C 191.083,329.319 193.749,327.319 195.5,325C 194.5,324.667 193.5,324.333 192.5,324C 194.134,323.506 195.801,323.34 197.5,323.5C 197.66,321.801 197.494,320.134 197,318.5C 195.599,320.192 193.766,320.859 191.5,320.5C 198.733,316.051 206.399,312.385 214.5,309.5 Z"/></g>
<g><path style="opacity:1" fill="#528295" d="M 285.5,310.5 C 285.108,312.179 284.608,313.846 284,315.5C 283.586,315.043 283.086,314.709 282.5,314.5C 281.29,316.432 279.29,318.265 276.5,320C 275.167,320.333 273.833,320.667 272.5,321C 274.224,321.448 274.891,322.282 274.5,323.5C 276.214,322.391 276.881,323.058 276.5,325.5C 268.385,329.615 260.051,333.282 251.5,336.5C 250.438,335.425 250.438,334.425 251.5,333.5C 252.72,332.289 253.887,332.289 255,333.5C 259.058,329.906 263.558,326.906 268.5,324.5C 266.305,323.231 264.139,323.231 262,324.5C 261.536,323.906 261.369,323.239 261.5,322.5C 270.051,319.558 278.051,315.558 285.5,310.5 Z"/></g>
<g><path style="opacity:1" fill="#101f2a" d="M 335.5,312.5 C 328.147,322.186 319.481,330.519 309.5,337.5C 309.279,336.265 308.612,335.265 307.5,334.5C 308.167,333.833 308.833,333.167 309.5,332.5C 309.376,331.893 309.043,331.56 308.5,331.5C 308.47,330.503 308.97,329.836 310,329.5C 311.465,330.33 312.965,330.496 314.5,330C 311.112,328.678 310.779,326.845 313.5,324.5C 316.107,323.682 318.774,323.182 321.5,323C 320.833,322.667 320.167,322.333 319.5,322C 320.955,319.984 322.955,319.151 325.5,319.5C 325.215,317.712 325.548,316.045 326.5,314.5C 328.774,314.03 330.774,313.03 332.5,311.5C 333.417,312.127 334.417,312.461 335.5,312.5 Z"/></g>
<g><path style="opacity:1" fill="#122734" d="M 239.5,317.5 C 234.624,320.346 229.291,322.013 223.5,322.5C 223.567,323.959 223.234,325.292 222.5,326.5C 215.485,326.219 208.485,327.053 201.5,329C 200.151,329.772 199.318,330.939 199,332.5C 198.667,332.167 198.333,331.833 198,331.5C 192.595,333.014 187.095,334.348 181.5,335.5C 180.3,334.469 178.966,333.635 177.5,333C 178.252,332.329 178.586,331.496 178.5,330.5C 178.5,329.5 178.5,328.5 178.5,327.5C 182.347,324.407 186.68,322.074 191.5,320.5C 193.766,320.859 195.599,320.192 197,318.5C 197.494,320.134 197.66,321.801 197.5,323.5C 195.801,323.34 194.134,323.506 192.5,324C 193.5,324.333 194.5,324.667 195.5,325C 193.749,327.319 191.083,329.319 187.5,331C 191.78,330.739 195.78,329.573 199.5,327.5C 205.943,326.824 211.943,325.157 217.5,322.5C 224.926,321.143 232.259,319.476 239.5,317.5 Z"/></g>
<g><path style="opacity:1" fill="#0d1e2c" d="M 222.5,326.5 C 224.143,326.48 225.476,327.147 226.5,328.5C 227.451,327.674 228.451,327.508 229.5,328C 227.453,329.073 225.453,330.239 223.5,331.5C 222.719,330.263 221.719,329.263 220.5,328.5C 219.494,328.938 219.494,329.604 220.5,330.5C 218.109,332.747 215.275,334.081 212,334.5C 211.667,333.833 211.333,333.167 211,332.5C 209.989,333.337 208.822,333.67 207.5,333.5C 207.5,334.833 207.5,336.167 207.5,337.5C 205.219,337.077 203.552,337.744 202.5,339.5C 199.678,339.322 197.011,338.655 194.5,337.5C 191.178,337.845 187.845,338.179 184.5,338.5C 180.962,337.837 177.795,336.503 175,334.5C 173.358,335.846 172.691,335.513 173,333.5C 173.741,332.359 174.575,332.359 175.5,333.5C 176.288,332.23 177.288,331.23 178.5,330.5C 178.586,331.496 178.252,332.329 177.5,333C 178.966,333.635 180.3,334.469 181.5,335.5C 187.095,334.348 192.595,333.014 198,331.5C 198.333,331.833 198.667,332.167 199,332.5C 199.318,330.939 200.151,329.772 201.5,329C 208.485,327.053 215.485,326.219 222.5,326.5 Z"/></g>
<g><path style="opacity:0.998" fill="#152734" d="M 178.5,327.5 C 178.5,328.5 178.5,329.5 178.5,330.5C 177.288,331.23 176.288,332.23 175.5,333.5C 174.575,332.359 173.741,332.359 173,333.5C 172.691,335.513 173.358,335.846 175,334.5C 177.795,336.503 180.962,337.837 184.5,338.5C 187.845,338.179 191.178,337.845 194.5,337.5C 197.011,338.655 199.678,339.322 202.5,339.5C 182.72,344.997 163.22,351.663 144,359.5C 142.457,358.423 142.457,357.089 144,355.5C 153.295,343.438 164.795,334.104 178.5,327.5 Z"/></g>
<g><path style="opacity:1" fill="#4d8299" d="M 261.5,322.5 C 261.369,323.239 261.536,323.906 262,324.5C 264.139,323.231 266.305,323.231 268.5,324.5C 263.558,326.906 259.058,329.906 255,333.5C 253.887,332.289 252.72,332.289 251.5,333.5C 250.438,334.425 250.438,335.425 251.5,336.5C 242.361,339.73 233.027,342.396 223.5,344.5C 225.299,341.269 227.966,340.269 231.5,341.5C 232.386,340.675 232.719,339.675 232.5,338.5C 233.873,338.657 235.207,338.49 236.5,338C 239.906,336.233 243.24,334.233 246.5,332C 249.226,331.818 251.893,331.318 254.5,330.5C 255.246,329.264 255.579,327.93 255.5,326.5C 258.034,326.741 259.7,325.741 260.5,323.5C 260.5,322.833 260.833,322.5 261.5,322.5 Z"/></g>
<g><path style="opacity:1" fill="#0d1c27" d="M 308.5,331.5 C 309.043,331.56 309.376,331.893 309.5,332.5C 308.833,333.167 308.167,333.833 307.5,334.5C 308.612,335.265 309.279,336.265 309.5,337.5C 296.35,346.22 282.017,352.22 266.5,355.5C 266.953,354.542 267.619,353.708 268.5,353C 267.167,352.667 265.833,352.333 264.5,352C 265.38,350.644 265.714,349.144 265.5,347.5C 267.621,347.675 269.621,347.341 271.5,346.5C 272.189,347.774 273.023,347.774 274,346.5C 274.494,344.866 274.66,343.199 274.5,341.5C 278.277,340.021 282.277,339.188 286.5,339C 288.042,336.283 289.376,333.45 290.5,330.5C 293.088,329.806 295.421,328.64 297.5,327C 296.167,326 296.167,325 297.5,324C 296.906,323.536 296.239,323.369 295.5,323.5C 297.169,322.34 299.003,322.34 301,323.5C 302.059,323.37 302.892,322.87 303.5,322C 304.089,320.127 303.422,318.46 301.5,317C 303.247,314.903 305.58,314.237 308.5,315C 310.788,314.054 312.955,312.887 315,311.5C 315.5,312 316,312.5 316.5,313C 315.667,315.167 314.167,316.667 312,317.5C 311.439,319.725 310.439,321.725 309,323.5C 308.667,323.167 308.333,322.833 308,322.5C 305.239,323.796 302.405,324.963 299.5,326C 300.232,328.95 298.899,330.45 295.5,330.5C 295.5,331.5 295.5,332.5 295.5,333.5C 300.277,333.517 304.61,332.85 308.5,331.5 Z"/></g>
<g><path style="opacity:1" fill="#56879c" d="M 260.5,323.5 C 259.7,325.741 258.034,326.741 255.5,326.5C 255.579,327.93 255.246,329.264 254.5,330.5C 251.893,331.318 249.226,331.818 246.5,332C 243.24,334.233 239.906,336.233 236.5,338C 235.207,338.49 233.873,338.657 232.5,338.5C 232.719,339.675 232.386,340.675 231.5,341.5C 227.966,340.269 225.299,341.269 223.5,344.5C 219.279,344.77 216.279,346.77 214.5,350.5C 212.137,351.17 209.804,351.837 207.5,352.5C 205.883,351.962 204.216,351.629 202.5,351.5C 202.281,350.325 202.614,349.325 203.5,348.5C 211.101,344.202 219.101,340.702 227.5,338C 229.398,336.583 231.064,335.083 232.5,333.5C 241.753,329.971 251.086,326.638 260.5,323.5 Z"/></g>
<g><path style="opacity:1" fill="#3e6c82" d="M 289.5,318.5 C 291.435,319.15 293.435,319.483 295.5,319.5C 290.833,322.5 286.167,325.5 281.5,328.5C 278.304,329.929 275.304,331.595 272.5,333.5C 261.545,337.927 250.545,341.927 239.5,345.5C 228.886,347.931 218.553,350.931 208.5,354.5C 208.167,354.5 207.833,354.5 207.5,354.5C 207.5,353.833 207.5,353.167 207.5,352.5C 209.804,351.837 212.137,351.17 214.5,350.5C 216.279,346.77 219.279,344.77 223.5,344.5C 233.027,342.396 242.361,339.73 251.5,336.5C 260.051,333.282 268.385,329.615 276.5,325.5C 280.993,323.421 285.326,321.088 289.5,318.5 Z"/></g>
<g><path style="opacity:1" fill="#0a1923" d="M 295.5,323.5 C 296.239,323.369 296.906,323.536 297.5,324C 296.167,325 296.167,326 297.5,327C 295.421,328.64 293.088,329.806 290.5,330.5C 289.376,333.45 288.042,336.283 286.5,339C 282.277,339.188 278.277,340.021 274.5,341.5C 274.66,343.199 274.494,344.866 274,346.5C 273.023,347.774 272.189,347.774 271.5,346.5C 271.539,345.244 271.039,344.244 270,343.5C 268.744,342.97 267.244,342.97 265.5,343.5C 264.571,342.311 264.238,340.978 264.5,339.5C 266.487,338.836 268.154,337.669 269.5,336C 271.167,335.667 272.833,335.333 274.5,335C 273.584,334.722 272.918,334.222 272.5,333.5C 275.304,331.595 278.304,329.929 281.5,328.5C 282.15,328.804 282.817,329.137 283.5,329.5C 287.784,327.837 291.784,325.837 295.5,323.5 Z"/></g>
<g><path style="opacity:1" fill="#0e1c28" d="M 264.5,339.5 C 264.238,340.978 264.571,342.311 265.5,343.5C 267.244,342.97 268.744,342.97 270,343.5C 271.039,344.244 271.539,345.244 271.5,346.5C 269.621,347.341 267.621,347.675 265.5,347.5C 265.714,349.144 265.38,350.644 264.5,352C 265.833,352.333 267.167,352.667 268.5,353C 267.619,353.708 266.953,354.542 266.5,355.5C 254.561,357.686 242.561,358.353 230.5,357.5C 230.866,356.305 231.699,355.639 233,355.5C 235.787,356.517 238.62,356.684 241.5,356C 238.728,355.474 236.062,354.641 233.5,353.5C 235.396,352.534 237.396,352.201 239.5,352.5C 244.957,352.148 249.957,352.981 254.5,355C 254.957,354.586 255.291,354.086 255.5,353.5C 254.846,351.885 254.346,350.218 254,348.5C 253,348.833 252,349.167 251,349.5C 249.916,348.335 249.083,347.002 248.5,345.5C 253.544,342.63 258.878,340.63 264.5,339.5 Z"/></g>
<g><path style="opacity:1" fill="#608fa3" d="M 232.5,333.5 C 231.064,335.083 229.398,336.583 227.5,338C 219.101,340.702 211.101,344.202 203.5,348.5C 202.614,349.325 202.281,350.325 202.5,351.5C 204.216,351.629 205.883,351.962 207.5,352.5C 207.5,353.167 207.5,353.833 207.5,354.5C 200.949,353.445 194.616,351.612 188.5,349C 187.167,348 187.167,347 188.5,346C 203.286,342.138 217.953,337.971 232.5,333.5 Z"/></g>
<g><path style="opacity:1" fill="#0a1927" d="M 272.5,333.5 C 272.918,334.222 273.584,334.722 274.5,335C 272.833,335.333 271.167,335.667 269.5,336C 268.154,337.669 266.487,338.836 264.5,339.5C 258.878,340.63 253.544,342.63 248.5,345.5C 249.083,347.002 249.916,348.335 251,349.5C 252,349.167 253,348.833 254,348.5C 254.346,350.218 254.846,351.885 255.5,353.5C 255.291,354.086 254.957,354.586 254.5,355C 249.957,352.981 244.957,352.148 239.5,352.5C 240.598,351.603 240.598,350.77 239.5,350C 237.102,349.626 234.769,349.626 232.5,350C 235.417,348.895 238.417,347.895 241.5,347C 240.584,346.722 239.918,346.222 239.5,345.5C 250.545,341.927 261.545,337.927 272.5,333.5 Z"/></g>
<g><path style="opacity:1" fill="#0d1f2d" d="M 239.5,345.5 C 239.918,346.222 240.584,346.722 241.5,347C 238.417,347.895 235.417,348.895 232.5,350C 234.769,349.626 237.102,349.626 239.5,350C 240.598,350.77 240.598,351.603 239.5,352.5C 237.396,352.201 235.396,352.534 233.5,353.5C 236.062,354.641 238.728,355.474 241.5,356C 238.62,356.684 235.787,356.517 233,355.5C 231.699,355.639 230.866,356.305 230.5,357.5C 223.001,357.428 215.668,356.428 208.5,354.5C 218.553,350.931 228.886,347.931 239.5,345.5 Z"/></g>
</svg>
