<svg width="166" height="100" viewBox="0 0 166 100" fill="none" xmlns="http://www.w3.org/2000/svg">
<g clip-path="url(#clip0)">
<path d="M65.7602 40.276C65.7602 43.7778 65.1003 47.1692 63.7805 50.4504C62.488 53.7042 60.7283 56.7648 58.5014 59.6325C56.2742 62.5001 53.676 65.1333 50.7064 67.5322C47.7642 69.9313 44.6436 72.013 41.3441 73.7777C38.0447 75.5425 34.6628 76.9486 31.1982 77.9966C27.7338 79.0442 24.3931 79.6645 21.1761 79.8577V33.4928L29.6722 30.4733V75.5148C33.5492 74.3842 37.0959 72.7575 40.313 70.6342C43.5576 68.4836 46.3482 65.9469 48.6854 63.0239C51.0226 60.1013 52.8372 56.8336 54.1294 53.2216C55.4492 49.6095 56.1091 45.7492 56.1091 41.6407C56.1091 39.2969 55.8067 37.0636 55.2019 34.9404C54.6244 32.7895 53.717 30.9145 52.4799 29.3154C51.2698 27.6885 49.7301 26.4064 47.8607 25.4689C45.9907 24.5038 43.7638 24.0213 41.179 24.0213C39.0621 24.0213 36.9311 24.2556 34.7863 24.7244C32.6693 25.1931 30.5932 25.8549 28.5586 26.7097C26.5514 27.5369 24.613 28.5295 22.7433 29.6878C20.9011 30.8457 19.1964 32.1142 17.6291 33.4928L16.3506 32.0866C18.0003 30.2942 19.9525 28.6122 22.2072 27.0405C24.4618 25.4413 26.8677 24.0488 29.4247 22.8632C31.9819 21.6499 34.6077 20.6986 37.3024 20.0093C39.9968 19.2924 42.6088 18.9339 45.1384 18.9339C48.5478 18.9339 51.5449 19.444 54.1294 20.4643C56.7141 21.4845 58.8589 22.9321 60.5635 24.8071C62.2956 26.6821 63.5878 28.9293 64.4404 31.5489C65.3203 34.1683 65.7602 37.0772 65.7602 40.276ZM108.901 80.2713L87.9491 23.2768L96.3215 19.513L111.87 64.3475L117.768 48.2583L110.014 27.1646L118.387 23.5249L132.904 66.4569C134.444 63.0378 135.956 59.6463 137.441 56.2822C138.953 52.8907 140.452 49.4716 141.937 46.0248C142.652 44.343 143.284 42.6472 143.834 40.9378C144.384 39.2004 144.659 37.3669 144.659 35.4366C144.659 33.9478 144.466 32.5416 144.081 31.218C143.724 29.8945 143.215 28.6398 142.555 27.4542C141.895 26.2409 141.098 25.1104 140.163 24.0626C139.256 22.9872 138.266 21.9808 137.194 21.0433L143.463 13.2676C144.48 14.012 145.401 14.9358 146.226 16.0387C147.078 17.1417 147.807 18.3273 148.412 19.5957C149.017 20.8641 149.484 22.1738 149.814 23.5249C150.144 24.876 150.309 26.172 150.309 27.4128C150.309 29.8392 149.952 32.1969 149.237 34.4854C148.522 36.7466 147.697 38.9936 146.762 41.2272C143.93 47.7895 141.084 54.2969 138.225 60.7492C135.365 67.2013 132.492 73.7086 129.605 80.2713L119.047 51.6498L108.901 80.2713Z" fill="white"/>
<path d="M83.0001 75.6802C83.0001 76.3419 82.8625 76.9625 82.5877 77.5416C82.3402 78.1205 81.9965 78.6169 81.5565 79.0305C81.1442 79.4717 80.6356 79.8164 80.0306 80.0646C79.4531 80.3125 78.8346 80.4367 78.1747 80.4367C77.5148 80.4367 76.8962 80.3125 76.3187 80.0646C75.7688 79.8164 75.2738 79.4717 74.8338 79.0305C74.3939 78.6169 74.0502 78.1205 73.8029 77.5416C73.5554 76.9625 73.4316 76.3419 73.4316 75.6802C73.4316 75.0184 73.5554 74.3981 73.8029 73.819C74.0502 73.2402 74.3939 72.7299 74.8338 72.2887C75.2738 71.8475 75.7688 71.5028 76.3187 71.2549C76.8962 70.979 77.5148 70.8411 78.1747 70.8411C78.8346 70.8411 79.4531 70.979 80.0306 71.2549C80.6356 71.5028 81.1442 71.8475 81.5565 72.2887C81.9965 72.7299 82.3402 73.2402 82.5877 73.819C82.8625 74.3981 83.0001 75.0184 83.0001 75.6802Z" fill="#14794F"/>
<path d="M166 84.7058H0V88.2352H166V84.7058Z" fill="#14794F"/>
<path d="M152.802 90.5881H13.1978V94.1175H152.802V90.5881Z" fill="#AB1111" fill-opacity="0.9"/>
<path d="M136.671 96.4707H29.3286V100H136.671V96.4707Z" fill="#DCDCDD"/>
</g>
<defs>
<clipPath id="clip0">
<rect width="166" height="100" fill="white"/>
</clipPath>
</defs>
</svg>
