<svg width="138" height="68" viewBox="0 0 138 68" fill="none" xmlns="http://www.w3.org/2000/svg">
<rect x="6.5" y="0.5" width="126" height="63" rx="31.5" fill="black" stroke="white"/>
<circle cx="99.5" cy="32.5" r="25.5" fill="white"/>
<path d="M93.7744 33.3208C93.7744 34.1509 93.6646 34.9525 93.4448 35.7256C93.2332 36.4906 92.9321 37.2108 92.5415 37.8862C92.1509 38.5535 91.6789 39.1639 91.1255 39.7173C90.5721 40.2707 89.9618 40.7467 89.2944 41.1455C88.6271 41.5361 87.9069 41.8372 87.1338 42.0488C86.3607 42.2686 85.5591 42.3784 84.729 42.3784C83.8989 42.3784 83.0973 42.2686 82.3242 42.0488C81.5592 41.8372 80.839 41.5361 80.1636 41.1455C79.4963 40.7467 78.8859 40.2707 78.3325 39.7173C77.7791 39.1639 77.3031 38.5535 76.9043 37.8862C76.5137 37.2108 76.2085 36.4906 75.9888 35.7256C75.7772 34.9525 75.6714 34.1509 75.6714 33.3208C75.6714 32.4907 75.7772 31.6891 75.9888 30.916C76.2085 30.1429 76.5137 29.4227 76.9043 28.7554C77.3031 28.0881 77.7791 27.4777 78.3325 26.9243C78.8859 26.3709 79.4963 25.8989 80.1636 25.5083C80.839 25.1177 81.5592 24.8166 82.3242 24.605C83.0973 24.3853 83.8989 24.2754 84.729 24.2754C85.5591 24.2754 86.3607 24.3853 87.1338 24.605C87.9069 24.8166 88.6271 25.1177 89.2944 25.5083C89.9618 25.8989 90.5721 26.3709 91.1255 26.9243C91.6789 27.4777 92.1509 28.0881 92.5415 28.7554C92.9321 29.4227 93.2332 30.1429 93.4448 30.916C93.6646 31.6891 93.7744 32.4907 93.7744 33.3208ZM90.2954 33.3208C90.2954 32.5558 90.1489 31.8356 89.856 31.1602C89.563 30.4766 89.1642 29.8866 88.6597 29.3901C88.1632 28.8856 87.5732 28.4868 86.8896 28.1938C86.2142 27.9009 85.494 27.7544 84.729 27.7544C83.9559 27.7544 83.2316 27.9009 82.5562 28.1938C81.8807 28.4868 81.2907 28.8856 80.7861 29.3901C80.2816 29.8866 79.8828 30.4766 79.5898 31.1602C79.2969 31.8356 79.1504 32.5558 79.1504 33.3208C79.1504 34.0858 79.2969 34.806 79.5898 35.4814C79.8828 36.1488 80.2816 36.7347 80.7861 37.2393C81.2907 37.7438 81.8807 38.1426 82.5562 38.4355C83.2316 38.7285 83.9559 38.875 84.729 38.875C85.494 38.875 86.2142 38.7285 86.8896 38.4355C87.5732 38.1426 88.1632 37.7438 88.6597 37.2393C89.1642 36.7347 89.563 36.1488 89.856 35.4814C90.1489 34.806 90.2954 34.0858 90.2954 33.3208ZM99.585 42H96.0815V24.4951H108.337V27.9985H99.585V31.502H104.834V35.0054H99.585V42ZM113.647 42H110.144V24.4951H122.4V27.9985H113.647V31.502H118.896V35.0054H113.647V42Z" fill="black"/>
</svg>
