<svg width="138" height="68" viewBox="0 0 138 68" fill="none" xmlns="http://www.w3.org/2000/svg">
<rect x="5" width="127" height="64" rx="32" fill="#FCFCFC"/>
<circle cx="95.5" cy="31.5" r="25.5" fill="black"/>
<path d="M95.7744 32.3208C95.7744 33.1509 95.6646 33.9525 95.4448 34.7256C95.2332 35.4906 94.9321 36.2108 94.5415 36.8862C94.1509 37.5535 93.6789 38.1639 93.1255 38.7173C92.5721 39.2707 91.9618 39.7467 91.2944 40.1455C90.6271 40.5361 89.9069 40.8372 89.1338 41.0488C88.3607 41.2686 87.5591 41.3784 86.729 41.3784C85.8989 41.3784 85.0973 41.2686 84.3242 41.0488C83.5592 40.8372 82.839 40.5361 82.1636 40.1455C81.4963 39.7467 80.8859 39.2707 80.3325 38.7173C79.7791 38.1639 79.3031 37.5535 78.9043 36.8862C78.5137 36.2108 78.2085 35.4906 77.9888 34.7256C77.7772 33.9525 77.6714 33.1509 77.6714 32.3208C77.6714 31.4907 77.7772 30.6891 77.9888 29.916C78.2085 29.1429 78.5137 28.4227 78.9043 27.7554C79.3031 27.0881 79.7791 26.4777 80.3325 25.9243C80.8859 25.3709 81.4963 24.8989 82.1636 24.5083C82.839 24.1177 83.5592 23.8166 84.3242 23.605C85.0973 23.3853 85.8989 23.2754 86.729 23.2754C87.5591 23.2754 88.3607 23.3853 89.1338 23.605C89.9069 23.8166 90.6271 24.1177 91.2944 24.5083C91.9618 24.8989 92.5721 25.3709 93.1255 25.9243C93.6789 26.4777 94.1509 27.0881 94.5415 27.7554C94.9321 28.4227 95.2332 29.1429 95.4448 29.916C95.6646 30.6891 95.7744 31.4907 95.7744 32.3208ZM92.2954 32.3208C92.2954 31.5558 92.1489 30.8356 91.856 30.1602C91.563 29.4766 91.1642 28.8866 90.6597 28.3901C90.1632 27.8856 89.5732 27.4868 88.8896 27.1938C88.2142 26.9009 87.494 26.7544 86.729 26.7544C85.9559 26.7544 85.2316 26.9009 84.5562 27.1938C83.8807 27.4868 83.2907 27.8856 82.7861 28.3901C82.2816 28.8866 81.8828 29.4766 81.5898 30.1602C81.2969 30.8356 81.1504 31.5558 81.1504 32.3208C81.1504 33.0858 81.2969 33.806 81.5898 34.4814C81.8828 35.1488 82.2816 35.7347 82.7861 36.2393C83.2907 36.7438 83.8807 37.1426 84.5562 37.4355C85.2316 37.7285 85.9559 37.875 86.729 37.875C87.494 37.875 88.2142 37.7285 88.8896 37.4355C89.5732 37.1426 90.1632 36.7438 90.6597 36.2393C91.1642 35.7347 91.563 35.1488 91.856 34.4814C92.1489 33.806 92.2954 33.0858 92.2954 32.3208ZM112.083 41H108.335L101.585 29.4766V41H98.0815V23.4951H101.829L108.58 35.0308V23.4951H112.083V41Z" fill="white"/>
</svg>
