<svg width="566" height="340" viewBox="0 0 566 340" fill="none" xmlns="http://www.w3.org/2000/svg">
<path d="M224.219 136.938C224.219 148.844 221.969 160.375 217.469 171.531C213.062 182.594 207.062 193 199.469 202.75C191.875 212.5 183.016 221.453 172.891 229.609C162.859 237.766 152.219 244.844 140.969 250.844C129.719 256.844 118.188 261.625 106.375 265.188C94.5625 268.75 83.1719 270.859 72.2031 271.516V113.875L101.172 103.609V256.75C114.391 252.906 126.484 247.375 137.453 240.156C148.516 232.844 158.031 224.219 166 214.281C173.969 204.344 180.156 193.234 184.562 180.953C189.062 168.672 191.312 155.547 191.312 141.578C191.312 133.609 190.281 126.016 188.219 118.797C186.25 111.484 183.156 105.109 178.938 99.6719C174.812 94.1406 169.562 89.7813 163.188 86.5938C156.812 83.3125 149.219 81.6719 140.406 81.6719C133.188 81.6719 125.922 82.4688 118.609 84.0625C111.391 85.6562 104.312 87.9062 97.375 90.8125C90.5312 93.625 83.9219 97 77.5469 100.938C71.2656 104.875 65.4531 109.188 60.1094 113.875L55.75 109.094C61.375 103 68.0312 97.2812 75.7188 91.9375C83.4062 86.5 91.6094 81.7656 100.328 77.7344C109.047 73.6094 118 70.375 127.188 68.0312C136.375 65.5938 145.281 64.375 153.906 64.375C165.531 64.375 175.75 66.1094 184.562 69.5781C193.375 73.0469 200.688 77.9688 206.5 84.3438C212.406 90.7187 216.812 98.3594 219.719 107.266C222.719 116.172 224.219 126.062 224.219 136.938Z" fill="#142479"/>
<path d="M283 257.312C283 259.562 282.531 261.672 281.594 263.641C280.75 265.609 279.578 267.297 278.078 268.703C276.672 270.203 274.938 271.375 272.875 272.219C270.906 273.062 268.797 273.484 266.547 273.484C264.297 273.484 262.188 273.062 260.219 272.219C258.344 271.375 256.656 270.203 255.156 268.703C253.656 267.297 252.484 265.609 251.641 263.641C250.797 261.672 250.375 259.562 250.375 257.312C250.375 255.062 250.797 252.953 251.641 250.984C252.484 249.016 253.656 247.281 255.156 245.781C256.656 244.281 258.344 243.109 260.219 242.266C262.188 241.328 264.297 240.859 266.547 240.859C268.797 240.859 270.906 241.328 272.875 242.266C274.938 243.109 276.672 244.281 278.078 245.781C279.578 247.281 280.75 249.016 281.594 250.984C282.531 252.953 283 255.062 283 257.312Z" fill="#070D2B"/>
<path d="M371.312 272.922L299.875 79.1406L328.422 66.3438L381.438 218.781L401.547 164.078L375.109 92.3594L403.656 79.9844L453.156 225.953C458.406 214.328 463.562 202.797 468.625 191.359C473.781 179.828 478.891 168.203 483.953 156.484C486.391 150.766 488.547 145 490.422 139.188C492.297 133.281 493.234 127.047 493.234 120.484C493.234 115.422 492.578 110.641 491.266 106.141C490.047 101.641 488.312 97.375 486.062 93.3438C483.812 89.2188 481.094 85.375 477.906 81.8125C474.812 78.1562 471.438 74.7344 467.781 71.5469L489.156 45.1094C492.625 47.6406 495.766 50.7812 498.578 54.5312C501.484 58.2813 503.969 62.3125 506.031 66.625C508.094 70.9375 509.688 75.3906 510.812 79.9844C511.938 84.5781 512.5 88.9844 512.5 93.2031C512.5 101.453 511.281 109.469 508.844 117.25C506.406 124.938 503.594 132.578 500.406 140.172C490.75 162.484 481.047 184.609 471.297 206.547C461.547 228.484 451.75 250.609 441.906 272.922L405.906 175.609L371.312 272.922Z" fill="#0F2391"/>
<rect y="288" width="566" height="12" fill="#142479"/>
<rect x="45" y="308" width="476" height="12" fill="#0F2391"/>
<rect x="100" y="328" width="366" height="12" fill="#112AAB" fill-opacity="0.9"/>
</svg>
